Radley-Regular.ufo
<glyph name="quotesingle" format="1">
  <advance width="370"/>
  <unicode hex="0027"/>
  <outline>
    <contour>
      <point x="172" y="753" type="curve"/>
      <point x="140" y="828"/>
      <point x="83" y="1138"/>
      <point x="83" y="1200" type="curve" smooth="yes"/>
      <point x="83" y="1264"/>
      <point x="121" y="1302"/>
      <point x="185" y="1302" type="curve" smooth="yes"/>
      <point x="249" y="1302"/>
      <point x="286" y="1264"/>
      <point x="286" y="1200" type="curve" smooth="yes"/>
      <point x="286" y="1106"/>
      <point x="228" y="752"/>
    </contour>
  </outline>
</glyph>
<glyph name="parenleft" format="1">
  <advance width="687"/>
  <unicode hex="0028"/>
  <outline>
    <contour>
      <point x="666" y="-208" type="curve"/>
      <point x="613" y="-268" type="line"/>
      <point x="286" y="-119"/>
      <point x="147" y="229"/>
      <point x="147" y="571" type="curve" smooth="yes"/>
      <point x="147" y="913"/>
      <point x="285" y="1261"/>
      <point x="613" y="1409" type="curve"/>
      <point x="666" y="1350" type="line"/>
      <point x="389" y="1187"/>
      <point x="279" y="878"/>
      <point x="279" y="571" type="curve" smooth="yes"/>
      <point x="279" y="262"/>
      <point x="389" y="-41"/>
    </contour>
  </outline>
</glyph>
<glyph name="hyphen" format="1">
  <advance width="772"/>
  <unicode hex="002D"/>
  <outline>
    <contour>
      <point x="691" y="402" type="line"/>
      <point x="89" y="402" type="line"/>
      <point x="89" y="530" type="line"/>
      <point x="691" y="530" type="line"/>
    </contour>
  </outline>
</glyph>
<glyph name="period" format="1">
  <advance width="556"/>
  <unicode hex="002E"/>
  <outline>
    <contour>
      <point x="277" y="251" type="curve" smooth="yes"/>
      <point x="354" y="251"/>
      <point x="415" y="189"/>
      <point x="415" y="116" type="curve" smooth="yes"/>
      <point x="415" y="44"/>
      <point x="354" y="-20"/>
      <point x="277" y="-20" type="curve" smooth="yes"/>
      <point x="201" y="-20"/>
      <point x="140" y="42"/>
      <point x="140" y="116" type="curve" smooth="yes"/>
      <point x="140" y="189"/>
      <point x="201" y="251"/>
    </contour>
  </outline>
</glyph>
<glyph name="zero" format="1">
  <advance width="1127"/>
  <unicode hex="0030"/>
  <outline>
    <contour>
      <point x="557" y="846" type="curve" smooth="yes"/>
      <point x="373" y="846"/>
      <point x="289" y="666"/>
      <point x="289" y="479" type="curve" smooth="yes"/>
      <point x="289" y="276"/>
      <point x="389" y="64"/>
      <point x="572" y="64" type="curve" smooth="yes"/>
      <point x="759" y="64"/>
      <point x="839" y="232"/>
      <point x="839" y="413" type="curve" smooth="yes"/>
      <point x="839" y="621"/>
      <point x="732" y="846"/>
    </contour>
    <contour>
      <point x="566" y="-17" type="curve" smooth="yes"/>
      <point x="243" y="-17"/>
      <point x="84" y="214"/>
      <point x="84" y="444" type="curve" smooth="yes"/>
      <point x="84" y="672"/>
      <point x="243" y="902"/>
      <point x="562" y="902" type="curve" smooth="yes"/>
      <point x="883" y="902"/>
      <point x="1044" y="671"/>
      <point x="1044" y="441" type="curve" smooth="yes"/>
      <point x="1044" y="213"/>
      <point x="885" y="-17"/>
    </contour>
  </outline>
</glyph>
<glyph name="one" format="1">
  <advance width="684"/>
  <unicode hex="0031"/>
  <outline>
    <contour>
      <point x="465" y="833" type="curve" smooth="yes"/>
      <point x="465" y="129" type="line" smooth="yes"/>
      <point x="465" y="13"/>
      <point x="670" y="84"/>
      <point x="670" y="19" type="curve" smooth="yes"/>
      <point x="670" y="16"/>
      <point x="668" y="10"/>
      <point x="665" y="0" type="curve"/>
      <point x="77" y="0" type="line"/>
      <point x="74" y="9"/>
      <point x="73" y="14"/>
      <point x="73" y="17" type="curve" smooth="yes"/>
      <point x="73" y="76"/>
      <point x="272" y="23"/>
      <point x="272" y="130" type="curve" smooth="yes"/>
      <point x="272" y="710" type="line" smooth="yes"/>
      <point x="272" y="812"/>
      <point x="72" y="774"/>
      <point x="72" y="828" type="curve" smooth="yes"/>
      <point x="72" y="832"/>
      <point x="74" y="838"/>
      <point x="77" y="846" type="curve"/>
      <point x="443" y="846" type="line" smooth="yes"/>
      <point x="458" y="846"/>
      <point x="465" y="842"/>
    </contour>
  </outline>
</glyph>
<glyph name="two" format="1">
  <advance width="766"/>
  <unicode hex="0032"/>
  <outline>
    <contour>
      <point x="230" y="84" type="curve"/>
      <point x="520" y="97" type="line" smooth="yes"/>
      <point x="651" y="103"/>
      <point x="595" y="259"/>
      <point x="657" y="259" type="curve"/>
      <point x="671" y="256" type="line"/>
      <point x="654" y="0" type="line"/>
      <point x="76" y="0" type="line"/>
      <point x="65" y="38" type="line"/>
      <point x="192" y="172"/>
      <point x="446" y="469"/>
      <point x="446" y="657" type="curve" smooth="yes"/>
      <point x="446" y="757"/>
      <point x="393" y="827"/>
      <point x="289" y="827" type="curve" smooth="yes"/>
      <point x="206" y="827"/>
      <point x="162" y="785"/>
      <point x="91" y="759" type="curve"/>
      <point x="78" y="779" type="line"/>
      <point x="80" y="791" type="line"/>
      <point x="127" y="865"/>
      <point x="282" y="902"/>
      <point x="364" y="902" type="curve" smooth="yes"/>
      <point x="518" y="902"/>
      <point x="658" y="814"/>
      <point x="658" y="647" type="curve" smooth="yes"/>
      <point x="658" y="463"/>
      <point x="365" y="197"/>
    </contour>
  </outline>
</glyph>
<glyph name="three" format="1">
  <advance width="890"/>
  <unicode hex="0033"/>
  <outline>
    <contour>
      <point x="353" y="-278" type="curve" smooth="yes"/>
      <point x="524" y="-278"/>
      <point x="622" y="-140"/>
      <point x="622" y="21" type="curve" smooth="yes"/>
      <point x="622" y="179"/>
      <point x="550" y="324"/>
      <point x="373" y="324" type="curve" smooth="yes"/>
      <point x="339" y="324"/>
      <point x="306" y="319"/>
      <point x="273" y="311" type="curve"/>
      <point x="228" y="363" type="line"/>
      <point x="361" y="407"/>
      <point x="578" y="509"/>
      <point x="578" y="674" type="curve" smooth="yes"/>
      <point x="578" y="764"/>
      <point x="524" y="807"/>
      <point x="436" y="807" type="curve" smooth="yes"/>
      <point x="317" y="807"/>
      <point x="248" y="745"/>
      <point x="145" y="706" type="curve"/>
      <point x="136" y="711"/>
      <point x="128" y="722"/>
      <point x="128" y="733" type="curve"/>
      <point x="131" y="749" type="line"/>
      <point x="207" y="847"/>
      <point x="337" y="901"/>
      <point x="459" y="901" type="curve" smooth="yes"/>
      <point x="598" y="901"/>
      <point x="732" y="833"/>
      <point x="732" y="678" type="curve" smooth="yes"/>
      <point x="732" y="511"/>
      <point x="582" y="400"/>
      <point x="427" y="387" type="curve"/>
      <point x="664" y="387"/>
      <point x="822" y="275"/>
      <point x="822" y="24" type="curve" smooth="yes"/>
      <point x="822" y="-222"/>
      <point x="594" y="-334"/>
      <point x="376" y="-334" type="curve" smooth="yes"/>
      <point x="253" y="-334"/>
      <point x="16" y="-297"/>
      <point x="16" y="-135" type="curve" smooth="yes"/>
      <point x="16" y="-80"/>
      <point x="65" y="-29"/>
      <point x="120" y="-29" type="curve" smooth="yes"/>
      <point x="166" y="-29"/>
      <point x="211" y="-72"/>
      <point x="211" y="-119" type="curve" smooth="yes"/>
      <point x="211" y="-149"/>
      <point x="191" y="-174"/>
      <point x="191" y="-202" type="curve" smooth="yes"/>
      <point x="191" y="-255"/>
      <point x="314" y="-278"/>
    </contour>
  </outline>
</glyph>
<glyph name="four" format="1">
  <advance width="921"/>
  <unicode hex="0034"/>
  <outline>
    <contour>
      <point x="500" y="-168" type="curve" smooth="yes"/>
      <point x="500" y="0" type="line"/>
      <point x="29" y="0" type="line"/>
      <point x="15" y="47" type="line"/>
      <point x="489" y="850" type="line"/>
      <point x="527" y="858"/>
      <point x="587" y="867"/>
      <point x="693" y="867" type="curve"/>
      <point x="693" y="113" type="line"/>
      <point x="826" y="113" type="line" smooth="yes"/>
      <point x="849" y="113"/>
      <point x="856" y="82"/>
      <point x="856" y="53" type="curve" smooth="yes"/>
      <point x="856" y="26"/>
      <point x="849" y="0"/>
      <point x="841" y="0" type="curve" smooth="yes"/>
      <point x="694" y="0" type="line"/>
      <point x="694" y="-173" type="line" smooth="yes"/>
      <point x="694" y="-257"/>
      <point x="867" y="-223"/>
      <point x="867" y="-267" type="curve" smooth="yes"/>
      <point x="867" y="-272"/>
      <point x="866" y="-278"/>
      <point x="863" y="-283" type="curve"/>
      <point x="325" y="-283" type="line"/>
      <point x="322" y="-275"/>
      <point x="321" y="-270"/>
      <point x="321" y="-267" type="curve" smooth="yes"/>
      <point x="321" y="-215"/>
      <point x="500" y="-255"/>
    </contour>
    <contour>
      <point x="500" y="113" type="line"/>
      <point x="500" y="713" type="line"/>
      <point x="126" y="113" type="line"/>
    </contour>
  </outline>
</glyph>
<glyph name="five" format="1">
  <advance width="910"/>
  <unicode hex="0035"/>
  <outline>
    <contour>
      <point x="404" y="303" type="curve" smooth="yes"/>
      <point x="286" y="303"/>
      <point x="210" y="227"/>
      <point x="127" y="220" type="curve"/>
      <point x="116" y="221"/>
      <point x="101" y="230"/>
      <point x="101" y="243" type="curve" smooth="yes"/>
      <point x="101" y="868" type="line"/>
      <point x="758" y="868" type="line"/>
      <point x="722" y="733" type="line"/>
      <point x="177" y="733" type="line"/>
      <point x="177" y="324" type="line"/>
      <point x="262" y="376"/>
      <point x="360" y="402"/>
      <point x="460" y="402" type="curve" smooth="yes"/>
      <point x="697" y="402"/>
      <point x="866" y="277"/>
      <point x="866" y="30" type="curve" smooth="yes"/>
      <point x="866" y="-218"/>
      <point x="650" y="-360"/>
      <point x="420" y="-360" type="curve" smooth="yes"/>
      <point x="297" y="-360"/>
      <point x="60" y="-323"/>
      <point x="60" y="-161" type="curve" smooth="yes"/>
      <point x="60" y="-106"/>
      <point x="109" y="-55"/>
      <point x="164" y="-55" type="curve" smooth="yes"/>
      <point x="210" y="-55"/>
      <point x="255" y="-98"/>
      <point x="255" y="-145" type="curve" smooth="yes"/>
      <point x="255" y="-175"/>
      <point x="235" y="-200"/>
      <point x="235" y="-228" type="curve" smooth="yes"/>
      <point x="235" y="-281"/>
      <point x="358" y="-304"/>
      <point x="397" y="-304" type="curve" smooth="yes"/>
      <point x="574" y="-304"/>
      <point x="666" y="-131"/>
      <point x="666" y="27" type="curve" smooth="yes"/>
      <point x="666" y="193"/>
      <point x="576" y="303"/>
    </contour>
  </outline>
</glyph>
<glyph name="six" format="1">
  <advance width="994"/>
  <unicode hex="0036"/>
  <outline>
    <contour>
      <point x="652" y="1247" type="curve"/>
      <point x="663" y="1250"/>
      <point x="677" y="1251"/>
      <point x="689" y="1251" type="curve" smooth="yes"/>
      <point x="710" y="1251"/>
      <point x="716" y="1246"/>
      <point x="716" y="1223" type="curve" smooth="yes"/>
      <point x="716" y="1211"/>
      <point x="715" y="1204"/>
      <point x="696" y="1197" type="curve" smooth="yes"/>
      <point x="547" y="1138"/>
      <point x="373" y="952"/>
      <point x="320" y="731" type="curve"/>
      <point x="396" y="767"/>
      <point x="474" y="783"/>
      <point x="547" y="783" type="curve" smooth="yes"/>
      <point x="771" y="783"/>
      <point x="944" y="642"/>
      <point x="944" y="389" type="curve" smooth="yes"/>
      <point x="944" y="147"/>
      <point x="735" y="-17"/>
      <point x="516" y="-17" type="curve" smooth="yes"/>
      <point x="209" y="-17"/>
      <point x="83" y="195"/>
      <point x="83" y="447" type="curve" smooth="yes"/>
      <point x="83" y="788"/>
      <point x="315" y="1199"/>
    </contour>
    <contour>
      <point x="744" y="396" type="curve" smooth="yes"/>
      <point x="744" y="615"/>
      <point x="644" y="717"/>
      <point x="495" y="717" type="curve" smooth="yes"/>
      <point x="438" y="717"/>
      <point x="375" y="699"/>
      <point x="311" y="662" type="curve"/>
      <point x="295" y="580"/>
      <point x="287" y="525"/>
      <point x="287" y="459" type="curve" smooth="yes"/>
      <point x="287" y="186"/>
      <point x="394" y="52"/>
      <point x="535" y="52" type="curve" smooth="yes"/>
      <point x="647" y="52"/>
      <point x="744" y="168"/>
    </contour>
  </outline>
</glyph>
<glyph name="seven" format="1">
  <advance width="856"/>
  <unicode hex="0037"/>
  <outline>
    <contour>
      <point x="457" y="-334" type="curve"/>
      <point x="247" y="-334" type="line"/>
      <point x="341" y="-1"/>
      <point x="499" y="477"/>
      <point x="688" y="763" type="curve"/>
      <point x="256" y="735" type="line" smooth="yes"/>
      <point x="77" y="723"/>
      <point x="150" y="517"/>
      <point x="71" y="517" type="curve" smooth="yes"/>
      <point x="65" y="517"/>
      <point x="56" y="520"/>
      <point x="51" y="521" type="curve"/>
      <point x="74" y="856" type="line"/>
      <point x="84" y="867" type="line"/>
      <point x="817" y="867" type="line"/>
      <point x="832" y="815" type="line"/>
      <point x="656" y="459"/>
      <point x="544" y="53"/>
    </contour>
  </outline>
</glyph>
<glyph name="eight" format="1">
  <advance width="1013"/>
  <unicode hex="0038"/>
  <outline>
    <contour>
      <point x="82" y="275" type="curve" smooth="yes"/>
      <point x="82" y="428"/>
      <point x="209" y="529"/>
      <point x="349" y="623" type="curve"/>
      <point x="236" y="706"/>
      <point x="137" y="803"/>
      <point x="137" y="943" type="curve" smooth="yes"/>
      <point x="137" y="1091"/>
      <point x="270" y="1207"/>
      <point x="516" y="1207" type="curve" smooth="yes"/>
      <point x="756" y="1207"/>
      <point x="841" y="1070"/>
      <point x="841" y="972" type="curve" smooth="yes"/>
      <point x="841" y="838"/>
      <point x="755" y="759"/>
      <point x="642" y="673" type="curve"/>
      <point x="790" y="580"/>
      <point x="935" y="472"/>
      <point x="935" y="264" type="curve" smooth="yes"/>
      <point x="935" y="124"/>
      <point x="836" y="-28"/>
      <point x="489" y="-28" type="curve" smooth="yes"/>
      <point x="241" y="-28"/>
      <point x="82" y="107"/>
    </contour>
    <contour>
      <point x="504" y="41" type="curve" smooth="yes"/>
      <point x="683" y="41"/>
      <point x="735" y="170"/>
      <point x="735" y="277" type="curve" smooth="yes"/>
      <point x="735" y="384"/>
      <point x="621" y="457"/>
      <point x="494" y="539" type="curve" smooth="yes"/>
      <point x="474" y="552" type="line"/>
      <point x="335" y="464"/>
      <point x="214" y="383"/>
      <point x="214" y="277" type="curve" smooth="yes"/>
      <point x="214" y="133"/>
      <point x="313" y="41"/>
    </contour>
    <contour>
      <point x="315" y="997" type="curve" smooth="yes"/>
      <point x="315" y="889"/>
      <point x="410" y="817"/>
      <point x="526" y="746" type="curve"/>
      <point x="641" y="821"/>
      <point x="713" y="881"/>
      <point x="713" y="978" type="curve" smooth="yes"/>
      <point x="713" y="1062"/>
      <point x="674" y="1144"/>
      <point x="516" y="1144" type="curve" smooth="yes"/>
      <point x="387" y="1144"/>
      <point x="315" y="1089"/>
    </contour>
  </outline>
</glyph>
<glyph name="nine" format="1">
  <advance width="1019"/>
  <unicode hex="0039"/>
  <outline>
    <contour>
      <point x="380" y="-363" type="curve"/>
      <point x="369" y="-366"/>
      <point x="355" y="-367"/>
      <point x="343" y="-367" type="curve" smooth="yes"/>
      <point x="322" y="-367"/>
      <point x="316" y="-362"/>
      <point x="316" y="-339" type="curve" smooth="yes"/>
      <point x="316" y="-327"/>
      <point x="317" y="-321"/>
      <point x="336" y="-313" type="curve" smooth="yes"/>
      <point x="485" y="-255"/>
      <point x="659" y="-68"/>
      <point x="712" y="153" type="curve"/>
      <point x="636" y="117"/>
      <point x="558" y="101"/>
      <point x="485" y="101" type="curve" smooth="yes"/>
      <point x="261" y="101"/>
      <point x="88" y="242"/>
      <point x="88" y="495" type="curve" smooth="yes"/>
      <point x="88" y="737"/>
      <point x="297" y="901"/>
      <point x="516" y="901" type="curve" smooth="yes"/>
      <point x="823" y="901"/>
      <point x="949" y="689"/>
      <point x="949" y="437" type="curve" smooth="yes"/>
      <point x="949" y="96"/>
      <point x="717" y="-315"/>
    </contour>
    <contour>
      <point x="288" y="488" type="curve" smooth="yes"/>
      <point x="288" y="269"/>
      <point x="388" y="167"/>
      <point x="537" y="167" type="curve" smooth="yes"/>
      <point x="594" y="167"/>
      <point x="657" y="185"/>
      <point x="721" y="222" type="curve"/>
      <point x="737" y="304"/>
      <point x="745" y="359"/>
      <point x="745" y="425" type="curve" smooth="yes"/>
      <point x="745" y="698"/>
      <point x="638" y="832"/>
      <point x="497" y="832" type="curve" smooth="yes"/>
      <point x="385" y="832"/>
      <point x="288" y="716"/>
    </contour>
  </outline>
</glyph>
<glyph name="colon" format="1">
  <advance width="590"/>
  <unicode hex="003A"/>
  <outline>
    <contour>
      <point x="294" y="251" type="curve" smooth="yes"/>
      <point x="371" y="251"/>
      <point x="433" y="189"/>
      <point x="433" y="116" type="curve" smooth="yes"/>
      <point x="433" y="44"/>
      <point x="371" y="-20"/>
      <point x="294" y="-20" type="curve" smooth="yes"/>
      <point x="218" y="-20"/>
      <point x="157" y="42"/>
      <point x="157" y="116" type="curve" smooth="yes"/>
      <point x="157" y="189"/>
      <point x="218" y="251"/>
    </contour>
    <contour>
      <point x="294" y="1039" type="curve" smooth="yes"/>
      <point x="371" y="1039"/>
      <point x="433" y="976"/>
      <point x="433" y="904" type="curve" smooth="yes"/>
      <point x="433" y="832"/>
      <point x="371" y="768"/>
      <point x="294" y="768" type="curve" smooth="yes"/>
      <point x="218" y="768"/>
      <point x="157" y="830"/>
      <point x="157" y="904" type="curve" smooth="yes"/>
      <point x="157" y="976"/>
      <point x="218" y="1039"/>
    </contour>
  </outline>
</glyph>
<glyph name="equal" format="1">
  <advance width="845"/>
  <unicode hex="003D"/>
  <outline>
    <contour>
      <point x="578" y="729" type="line" smooth="yes"/>
      <point x="584.353" y="729"/>
      <point x="592.668" y="729.187"/>
      <point x="602.054" y="729.187" type="curve" smooth="yes"/>
      <point x="645.858" y="729.187"/>
      <point x="713" y="725.118"/>
      <point x="713" y="679" type="curve" smooth="yes"/>
      <point x="713" y="641.667"/>
      <point x="669" y="635.444"/>
      <point x="629" y="635.444" type="curve" smooth="yes"/>
      <point x="609" y="635.444"/>
      <point x="590" y="637"/>
      <point x="578" y="637" type="curve" smooth="yes"/>
      <point x="266" y="637" type="line" smooth="yes"/>
      <point x="254.723" y="637"/>
      <point x="238.68" y="635.997"/>
      <point x="221.57" y="635.997" type="curve" smooth="yes"/>
      <point x="179.509" y="635.997"/>
      <point x="131" y="642.06"/>
      <point x="131" y="684" type="curve" smooth="yes"/>
      <point x="131" y="724.5"/>
      <point x="185.562" y="729.562"/>
      <point x="227.609" y="729.562" type="curve" smooth="yes"/>
      <point x="241.625" y="729.562"/>
      <point x="254.25" y="729"/>
      <point x="263" y="729" type="curve" smooth="yes"/>
    </contour>
    <contour>
      <point x="578" y="487" type="line" smooth="yes"/>
      <point x="584.353" y="487"/>
      <point x="592.668" y="487.187"/>
      <point x="602.054" y="487.187" type="curve" smooth="yes"/>
      <point x="645.858" y="487.187"/>
      <point x="713" y="483.118"/>
      <point x="713" y="437" type="curve" smooth="yes"/>
      <point x="713" y="399.667"/>
      <point x="669" y="393.444"/>
      <point x="629" y="393.444" type="curve" smooth="yes"/>
      <point x="609" y="393.444"/>
      <point x="590" y="395"/>
      <point x="578" y="395" type="curve" smooth="yes"/>
      <point x="266" y="395" type="line" smooth="yes"/>
      <point x="254.723" y="395"/>
      <point x="238.68" y="393.997"/>
      <point x="221.57" y="393.997" type="curve" smooth="yes"/>
      <point x="179.509" y="393.997"/>
      <point x="131" y="400.06"/>
      <point x="131" y="442" type="curve" smooth="yes"/>
      <point x="131" y="482.5"/>
      <point x="185.562" y="487.562"/>
      <point x="227.609" y="487.562" type="curve" smooth="yes"/>
      <point x="241.625" y="487.562"/>
      <point x="254.25" y="487"/>
      <point x="263" y="487" type="curve" smooth="yes"/>
    </contour>
  </outline>
</glyph>
<glyph name="question" format="1">
  <advance width="806"/>
  <unicode hex="003F"/>
  <outline>
    <contour>
      <point x="304" y="236" type="curve" smooth="yes"/>
      <point x="372" y="236"/>
      <point x="430" y="179"/>
      <point x="430" y="111" type="curve" smooth="yes"/>
      <point x="430" y="43"/>
      <point x="371" y="-13"/>
      <point x="304" y="-13" type="curve" smooth="yes"/>
      <point x="237" y="-13"/>
      <point x="181" y="45"/>
      <point x="181" y="111" type="curve" smooth="yes"/>
      <point x="181" y="178"/>
      <point x="236" y="236"/>
    </contour>
    <contour>
      <point x="338" y="358" type="line"/>
      <point x="257" y="358" type="line"/>
      <point x="250" y="431"/>
      <point x="225" y="502"/>
      <point x="225" y="576" type="curve" smooth="yes"/>
      <point x="225" y="690"/>
      <point x="593" y="756"/>
      <point x="593" y="984" type="curve" smooth="yes"/>
      <point x="593" y="1110"/>
      <point x="476" y="1218"/>
      <point x="352" y="1218" type="curve" smooth="yes"/>
      <point x="263" y="1218"/>
      <point x="232" y="1096"/>
      <point x="144" y="1096" type="curve" smooth="yes"/>
      <point x="100" y="1096"/>
      <point x="68" y="1138"/>
      <point x="68" y="1179" type="curve" smooth="yes"/>
      <point x="68" y="1294"/>
      <point x="219" y="1329"/>
      <point x="324" y="1329" type="curve" smooth="yes"/>
      <point x="518" y="1329"/>
      <point x="730" y="1161"/>
      <point x="730" y="970" type="curve" smooth="yes"/>
      <point x="730" y="613"/>
      <point x="338" y="649"/>
      <point x="338" y="397" type="curve" smooth="yes"/>
    </contour>
  </outline>
</glyph>
<glyph name="at" format="1">
  <advance width="1697"/>
  <unicode hex="0040"/>
  <outline>
    <contour>
      <point x="947" y="1328" type="curve" smooth="yes"/>
      <point x="1325" y="1328"/>
      <point x="1637" y="1112"/>
      <point x="1637" y="710" type="curve" smooth="yes"/>
      <point x="1637" y="487"/>
      <point x="1486" y="131"/>
      <point x="1223" y="131" type="curve" smooth="yes"/>
      <point x="1113" y="131"/>
      <point x="1050" y="224"/>
      <point x="1028" y="322" type="curve"/>
      <point x="959" y="236"/>
      <point x="852" y="183"/>
      <point x="741" y="183" type="curve" smooth="yes"/>
      <point x="549" y="183"/>
      <point x="455" y="332"/>
      <point x="455" y="510" type="curve" smooth="yes"/>
      <point x="455" y="781"/>
      <point x="653" y="1057"/>
      <point x="942" y="1057" type="curve" smooth="yes"/>
      <point x="1162" y="1057"/>
      <point x="1217" y="902"/>
      <point x="1217" y="711" type="curve" smooth="yes"/>
      <point x="1217" y="574"/>
      <point x="1186" y="439"/>
      <point x="1186" y="302" type="curve" smooth="yes"/>
      <point x="1186" y="258"/>
      <point x="1189" y="181"/>
      <point x="1251" y="181" type="curve" smooth="yes"/>
      <point x="1393" y="181"/>
      <point x="1439" y="562"/>
      <point x="1439" y="673" type="curve" smooth="yes"/>
      <point x="1439" y="985"/>
      <point x="1284" y="1275"/>
      <point x="938" y="1275" type="curve" smooth="yes"/>
      <point x="506" y="1275"/>
      <point x="277" y="843"/>
      <point x="277" y="457" type="curve" smooth="yes"/>
      <point x="277" y="137"/>
      <point x="437" y="-26"/>
      <point x="760" y="-26" type="curve" smooth="yes"/>
      <point x="843" y="-26"/>
      <point x="925" y="-13"/>
      <point x="1005" y="10" type="curve"/>
      <point x="998" y="-63" type="line"/>
      <point x="901" y="-94"/>
      <point x="799" y="-112"/>
      <point x="696" y="-112" type="curve" smooth="yes"/>
      <point x="356" y="-112"/>
      <point x="64" y="91"/>
      <point x="64" y="453" type="curve" smooth="yes"/>
      <point x="64" y="941"/>
      <point x="463" y="1328"/>
    </contour>
    <contour>
      <point x="1059" y="739" type="curve" smooth="yes"/>
      <point x="1059" y="829"/>
      <point x="1047" y="1018"/>
      <point x="921" y="1018" type="curve" smooth="yes"/>
      <point x="710" y="1018"/>
      <point x="617" y="689"/>
      <point x="617" y="519" type="curve" smooth="yes"/>
      <point x="617" y="412"/>
      <point x="644" y="251"/>
      <point x="781" y="251" type="curve" smooth="yes"/>
      <point x="869" y="251"/>
      <point x="960" y="302"/>
      <point x="1025" y="358" type="curve"/>
      <point x="1038" y="484"/>
      <point x="1059" y="612"/>
    </contour>
  </outline>
</glyph>
<glyph name="A" format="1">
  <advance width="1366"/>
  <unicode hex="0041"/>
  <outline>
    <contour>
      <point x="427" y="620" type="line"/>
      <point x="807" y="620" type="line"/>
      <point x="610" y="1112" type="line"/>
    </contour>
    <contour>
      <point x="277" y="175" type="curve" smooth="yes"/>
      <point x="277" y="89.8591"/>
      <point x="396.566" y="72.0387"/>
      <point x="468" y="57" type="curve"/>
      <point x="468" y="0" type="line"/>
      <point x="-4" y="0" type="line"/>
      <point x="-4" y="52" type="line"/>
      <point x="51" y="97"/>
      <point x="115" y="85"/>
      <point x="156" y="163" type="curve" smooth="yes"/>
      <point x="174" y="198"/>
      <point x="187" y="236"/>
      <point x="202" y="273" type="curve" smooth="yes"/>
      <point x="576" y="1231" type="line" smooth="yes"/>
      <point x="586" y="1258"/>
      <point x="577" y="1299"/>
      <point x="595" y="1324" type="curve"/>
      <point x="656" y="1324"/>
      <point x="701" y="1315"/>
      <point x="751" y="1277" type="curve"/>
      <point x="1210" y="176" type="line" smooth="yes"/>
      <point x="1247" y="86"/>
      <point x="1311" y="90"/>
      <point x="1383" y="52" type="curve"/>
      <point x="1381" y="0" type="line"/>
      <point x="799" y="0" type="line"/>
      <point x="797" y="52" type="line"/>
      <point x="857" y="70"/>
      <point x="965" y="101"/>
      <point x="965" y="180" type="curve" smooth="yes"/>
      <point x="965" y="227"/>
      <point x="866" y="472"/>
      <point x="844" y="532" type="curve"/>
      <point x="393" y="532" type="line"/>
      <point x="373" y="477"/>
      <point x="277" y="253"/>
    </contour>
  </outline>
</glyph>
<glyph name="B" format="1">
  <advance width="1380"/>
  <unicode hex="0042"/>
  <outline>
    <contour>
      <point x="279" y="221" type="curve" smooth="yes"/>
      <point x="279" y="1023" type="line" smooth="yes"/>
      <point x="279" y="1236"/>
      <point x="218" y="1188"/>
      <point x="63" y="1251" type="curve"/>
      <point x="65" y="1302" type="line"/>
      <point x="633" y="1302" type="line" smooth="yes"/>
      <point x="866" y="1302"/>
      <point x="1226" y="1292"/>
      <point x="1226" y="975" type="curve" smooth="yes"/>
      <point x="1226" y="771"/>
      <point x="1037" y="698"/>
      <point x="865" y="669" type="curve"/>
      <point x="1053" y="660"/>
      <point x="1292" y="574"/>
      <point x="1292" y="349" type="curve" smooth="yes"/>
      <point x="1292" y="81"/>
      <point x="1004" y="0"/>
      <point x="785" y="0" type="curve" smooth="yes"/>
      <point x="65" y="0" type="line"/>
      <point x="63" y="52" type="line"/>
      <point x="158" y="80"/>
      <point x="279" y="95"/>
    </contour>
    <contour>
      <point x="519" y="630" type="curve"/>
      <point x="494" y="608"/>
      <point x="494" y="572"/>
      <point x="494" y="542" type="curve" smooth="yes"/>
      <point x="494" y="274" type="line" smooth="yes"/>
      <point x="494" y="205"/>
      <point x="513" y="87"/>
      <point x="604" y="87" type="curve" smooth="yes"/>
      <point x="766" y="87" type="line" smooth="yes"/>
      <point x="917" y="87"/>
      <point x="1042" y="177"/>
      <point x="1042" y="336" type="curve" smooth="yes"/>
      <point x="1042" y="627"/>
      <point x="731" y="630"/>
    </contour>
    <contour>
      <point x="494" y="1227" type="line"/>
      <point x="494" y="730" type="line"/>
      <point x="513" y="713"/>
      <point x="548" y="700"/>
      <point x="574" y="700" type="curve" smooth="yes"/>
      <point x="707" y="700" type="line" smooth="yes"/>
      <point x="875" y="700"/>
      <point x="1027" y="749"/>
      <point x="1027" y="943" type="curve" smooth="yes"/>
      <point x="1027" y="1224"/>
      <point x="749" y="1226"/>
      <point x="540" y="1227" type="curve"/>
    </contour>
  </outline>
</glyph>
<glyph name="C" format="1">
  <advance width="1438"/>
  <unicode hex="0043"/>
  <outline>
    <contour>
      <point x="1279" y="1245" type="curve"/>
      <point x="1320" y="943" type="line"/>
      <point x="1273" y="941" type="line"/>
      <point x="1234" y="980"/>
      <point x="1197" y="1075"/>
      <point x="1155" y="1117" type="curve" smooth="yes"/>
      <point x="1063" y="1209"/>
      <point x="951" y="1250"/>
      <point x="835" y="1250" type="curve" smooth="yes"/>
      <point x="580" y="1250"/>
      <point x="345" y="1048"/>
      <point x="345" y="680" type="curve" smooth="yes"/>
      <point x="345" y="315"/>
      <point x="554" y="81"/>
      <point x="877" y="81" type="curve" smooth="yes"/>
      <point x="1055" y="81"/>
      <point x="1203" y="155"/>
      <point x="1282" y="304" type="curve"/>
      <point x="1331" y="297" type="line"/>
      <point x="1322" y="108" type="line"/>
      <point x="1175" y="26"/>
      <point x="967" y="-26"/>
      <point x="805" y="-26" type="curve" smooth="yes"/>
      <point x="414" y="-26"/>
      <point x="111" y="225"/>
      <point x="111" y="640" type="curve" smooth="yes"/>
      <point x="111" y="1022"/>
      <point x="404" y="1327"/>
      <point x="863" y="1327" type="curve" smooth="yes"/>
      <point x="998" y="1327"/>
      <point x="1135" y="1301"/>
    </contour>
  </outline>
</glyph>
<glyph name="D" format="1">
  <advance width="1597"/>
  <unicode hex="0044"/>
  <outline>
    <contour>
      <point x="665" y="1225" type="curve" smooth="yes"/>
      <point x="497" y="1225" type="line"/>
      <point x="497" y="271" type="line" smooth="yes"/>
      <point x="497" y="166"/>
      <point x="530" y="85"/>
      <point x="645" y="80" type="curve" smooth="yes"/>
      <point x="682" y="78"/>
      <point x="723" y="77"/>
      <point x="760" y="77" type="curve" smooth="yes"/>
      <point x="1106" y="77"/>
      <point x="1264" y="352"/>
      <point x="1264" y="609" type="curve" smooth="yes"/>
      <point x="1264" y="954"/>
      <point x="1084" y="1225"/>
    </contour>
    <contour>
      <point x="282" y="219" type="curve" smooth="yes"/>
      <point x="282" y="1010" type="line" smooth="yes"/>
      <point x="282" y="1053"/>
      <point x="278" y="1094"/>
      <point x="272" y="1131" type="curve" smooth="yes"/>
      <point x="257" y="1212"/>
      <point x="131" y="1226"/>
      <point x="58" y="1251" type="curve"/>
      <point x="60" y="1302" type="line"/>
      <point x="652" y="1302" type="line" smooth="yes"/>
      <point x="1128" y="1302"/>
      <point x="1502" y="1130"/>
      <point x="1502" y="658" type="curve" smooth="yes"/>
      <point x="1502" y="321"/>
      <point x="1257" y="0"/>
      <point x="779" y="0" type="curve" smooth="yes"/>
      <point x="60" y="0" type="line"/>
      <point x="58" y="52" type="line"/>
      <point x="155" y="81"/>
      <point x="282" y="81"/>
    </contour>
  </outline>
</glyph>
<glyph name="E" format="1">
  <advance width="1360"/>
  <unicode hex="0045"/>
  <outline>
    <contour>
      <point x="1236" y="342" type="curve"/>
      <point x="1299" y="342" type="line"/>
      <point x="1233" y="-9" type="line"/>
      <point x="1222" y="-11"/>
      <point x="1212" y="-12"/>
      <point x="1201" y="-12" type="curve" smooth="yes"/>
      <point x="1162" y="-12"/>
      <point x="1125" y="0"/>
      <point x="1086" y="0" type="curve" smooth="yes"/>
      <point x="60" y="0" type="line"/>
      <point x="58" y="49" type="line"/>
      <point x="202" y="128"/>
      <point x="271" y="26"/>
      <point x="271" y="267" type="curve" smooth="yes"/>
      <point x="271" y="1024" type="line" smooth="yes"/>
      <point x="271" y="1225"/>
      <point x="213" y="1190"/>
      <point x="58" y="1251" type="curve"/>
      <point x="60" y="1302" type="line"/>
      <point x="1080" y="1302" type="line" smooth="yes"/>
      <point x="1116" y="1302"/>
      <point x="1152" y="1312"/>
      <point x="1188" y="1312" type="curve" smooth="yes"/>
      <point x="1200" y="1312"/>
      <point x="1213" y="1311"/>
      <point x="1225" y="1308" type="curve"/>
      <point x="1225" y="997" type="line"/>
      <point x="1173" y="995" type="line"/>
      <point x="1110" y="1057"/>
      <point x="1119" y="1175"/>
      <point x="1023" y="1207" type="curve" smooth="yes"/>
      <point x="938" y="1235"/>
      <point x="788" y="1235"/>
      <point x="692" y="1235" type="curve" smooth="yes"/>
      <point x="619" y="1235"/>
      <point x="556" y="1234"/>
      <point x="490" y="1226" type="curve"/>
      <point x="487" y="1192"/>
      <point x="486" y="1157"/>
      <point x="486" y="1123" type="curve" smooth="yes"/>
      <point x="486" y="717" type="line"/>
      <point x="774" y="717" type="line" smooth="yes"/>
      <point x="932" y="717"/>
      <point x="949" y="748"/>
      <point x="1012" y="864" type="curve"/>
      <point x="1027" y="891" type="line"/>
      <point x="1084" y="891" type="line"/>
      <point x="1084" y="462" type="line"/>
      <point x="1027" y="459" type="line"/>
      <point x="989" y="561"/>
      <point x="932" y="641"/>
      <point x="813" y="641" type="curve" smooth="yes"/>
      <point x="486" y="641" type="line"/>
      <point x="486" y="304" type="line" smooth="yes"/>
      <point x="486" y="88"/>
      <point x="563" y="70"/>
      <point x="714" y="70" type="curve" smooth="yes"/>
      <point x="812" y="70" type="line" smooth="yes"/>
      <point x="942" y="70"/>
      <point x="1100" y="84"/>
      <point x="1165" y="215" type="curve" smooth="yes"/>
      <point x="1187" y="258"/>
      <point x="1202" y="306"/>
    </contour>
  </outline>
</glyph>
<glyph name="F" format="1">
  <advance width="1274"/>
  <unicode hex="0046"/>
  <outline>
    <contour>
      <point x="1075" y="901" type="line"/>
      <point x="1075" y="466" type="line"/>
      <point x="1056" y="464"/>
      <point x="1037" y="463"/>
      <point x="1018" y="463" type="curve"/>
      <point x="930" y="645"/>
      <point x="907" y="657"/>
      <point x="745" y="657" type="curve" smooth="yes"/>
      <point x="496" y="657" type="line"/>
      <point x="496" y="258" type="line" smooth="yes"/>
      <point x="496" y="36"/>
      <point x="588" y="106"/>
      <point x="740" y="52" type="curve"/>
      <point x="740" y="0" type="line"/>
      <point x="66" y="0" type="line"/>
      <point x="64" y="52" type="line"/>
      <point x="206" y="116"/>
      <point x="281" y="40"/>
      <point x="281" y="261" type="curve" smooth="yes"/>
      <point x="281" y="1021" type="line" smooth="yes"/>
      <point x="281" y="1231"/>
      <point x="218" y="1193"/>
      <point x="58" y="1251" type="curve"/>
      <point x="58" y="1302" type="line"/>
      <point x="391" y="1302"/>
      <point x="725" y="1305"/>
      <point x="1059" y="1305" type="curve" smooth="yes"/>
      <point x="1227" y="1305" type="line"/>
      <point x="1227" y="995" type="line"/>
      <point x="1182" y="993" type="line"/>
      <point x="1115" y="1067"/>
      <point x="1096" y="1205"/>
      <point x="982" y="1222" type="curve" smooth="yes"/>
      <point x="912" y="1232"/>
      <point x="840" y="1232"/>
      <point x="769" y="1232" type="curve" smooth="yes"/>
      <point x="577" y="1232" type="line" smooth="yes"/>
      <point x="509" y="1232"/>
      <point x="496" y="1229"/>
      <point x="496" y="1160" type="curve" smooth="yes"/>
      <point x="496" y="733" type="line"/>
      <point x="576" y="733"/>
      <point x="643" y="729"/>
      <point x="709" y="729" type="curve" smooth="yes"/>
      <point x="776" y="729"/>
      <point x="842" y="733"/>
      <point x="903" y="749" type="curve" smooth="yes"/>
      <point x="972" y="767"/>
      <point x="984" y="850"/>
      <point x="1016" y="903" type="curve"/>
    </contour>
  </outline>
</glyph>
<glyph name="G" format="1">
  <advance width="1558"/>
  <unicode hex="0047"/>
  <outline>
    <contour>
      <point x="1365" y="463" type="curve" smooth="yes"/>
      <point x="1365" y="95" type="line"/>
      <point x="1231" y="25"/>
      <point x="1040" y="-26"/>
      <point x="849" y="-26" type="curve" smooth="yes"/>
      <point x="393" y="-26"/>
      <point x="91" y="237"/>
      <point x="91" y="638" type="curve" smooth="yes"/>
      <point x="91" y="1055"/>
      <point x="457" y="1327"/>
      <point x="886" y="1327" type="curve" smooth="yes"/>
      <point x="1044" y="1327"/>
      <point x="1161" y="1305"/>
      <point x="1325" y="1247" type="curve"/>
      <point x="1355" y="945" type="line"/>
      <point x="1334" y="943"/>
      <point x="1314" y="942"/>
      <point x="1297" y="942" type="curve"/>
      <point x="1260" y="974"/>
      <point x="1231" y="1062"/>
      <point x="1199" y="1100" type="curve" smooth="yes"/>
      <point x="1106" y="1211"/>
      <point x="987" y="1250"/>
      <point x="860" y="1250" type="curve" smooth="yes"/>
      <point x="551" y="1250"/>
      <point x="330" y="1003"/>
      <point x="330" y="675" type="curve" smooth="yes"/>
      <point x="330" y="322"/>
      <point x="547" y="62"/>
      <point x="866" y="62" type="curve" smooth="yes"/>
      <point x="973" y="62"/>
      <point x="1054" y="78"/>
      <point x="1133" y="127" type="curve"/>
      <point x="1141" y="195"/>
      <point x="1145" y="277"/>
      <point x="1145" y="381" type="curve" smooth="yes"/>
      <point x="1145" y="439"/>
      <point x="1137" y="498"/>
      <point x="1117" y="553" type="curve" smooth="yes"/>
      <point x="1093" y="621"/>
      <point x="983" y="609"/>
      <point x="929" y="632" type="curve"/>
      <point x="929" y="649"/>
      <point x="931" y="684"/>
      <point x="931" y="684" type="curve"/>
      <point x="1531" y="684" type="line"/>
      <point x="1531" y="684"/>
      <point x="1533" y="648"/>
      <point x="1533" y="632" type="curve"/>
      <point x="1451" y="601"/>
      <point x="1365" y="587"/>
    </contour>
  </outline>
</glyph>
<glyph name="H" format="1">
  <advance width="1695"/>
  <unicode hex="0048"/>
  <outline>
    <contour>
      <point x="1204" y="625" type="line"/>
      <point x="490" y="625" type="line"/>
      <point x="490" y="255" type="line" smooth="yes"/>
      <point x="490" y="42"/>
      <point x="569" y="110"/>
      <point x="712" y="52" type="curve"/>
      <point x="710" y="0" type="line"/>
      <point x="66" y="0" type="line"/>
      <point x="65" y="17"/>
      <point x="63" y="35"/>
      <point x="63" y="52" type="curve"/>
      <point x="214" y="116"/>
      <point x="275" y="43"/>
      <point x="275" y="265" type="curve" smooth="yes"/>
      <point x="275" y="1038" type="line" smooth="yes"/>
      <point x="275" y="1245"/>
      <point x="205" y="1188"/>
      <point x="64" y="1251" type="curve"/>
      <point x="66" y="1302" type="line"/>
      <point x="709" y="1302" type="line"/>
      <point x="711" y="1250" type="line"/>
      <point x="570" y="1186"/>
      <point x="490" y="1253"/>
      <point x="490" y="1037" type="curve" smooth="yes"/>
      <point x="490" y="712" type="line"/>
      <point x="1204" y="712" type="line"/>
      <point x="1204" y="1047" type="line" smooth="yes"/>
      <point x="1204" y="1241"/>
      <point x="1129" y="1188"/>
      <point x="1001" y="1251" type="curve"/>
      <point x="1003" y="1302" type="line"/>
      <point x="1630" y="1302" type="line"/>
      <point x="1632" y="1250" type="line"/>
      <point x="1477" y="1195"/>
      <point x="1419" y="1233"/>
      <point x="1419" y="1030" type="curve" smooth="yes"/>
      <point x="1419" y="267" type="line" smooth="yes"/>
      <point x="1419" y="55"/>
      <point x="1474" y="107"/>
      <point x="1632" y="52" type="curve"/>
      <point x="1632" y="0" type="line"/>
      <point x="1003" y="0" type="line"/>
      <point x="1001" y="52" type="line"/>
      <point x="1125" y="119"/>
      <point x="1204" y="38"/>
      <point x="1204" y="252" type="curve" smooth="yes"/>
    </contour>
  </outline>
</glyph>
<glyph name="I" format="1">
  <advance width="766"/>
  <unicode hex="0049"/>
  <outline>
    <contour>
      <point x="491" y="1081" type="curve" smooth="yes"/>
      <point x="491" y="260" type="line" smooth="yes"/>
      <point x="491" y="46"/>
      <point x="568" y="108"/>
      <point x="721" y="53" type="curve"/>
      <point x="719" y="0" type="line"/>
      <point x="54" y="0" type="line"/>
      <point x="54" y="52" type="line"/>
      <point x="201" y="119"/>
      <point x="276" y="20"/>
      <point x="276" y="278" type="curve" smooth="yes"/>
      <point x="276" y="1030" type="line" smooth="yes"/>
      <point x="276" y="1284"/>
      <point x="173" y="1178"/>
      <point x="50" y="1251" type="curve"/>
      <point x="52" y="1302" type="line"/>
      <point x="715" y="1302" type="line"/>
      <point x="717" y="1250" type="line"/>
      <point x="621" y="1217"/>
      <point x="491" y="1217"/>
    </contour>
  </outline>
</glyph>
<glyph name="J" format="1">
  <advance width="726"/>
  <unicode hex="004A"/>
  <outline>
    <contour>
      <point x="49" y="1302" type="line"/>
      <point x="716" y="1302" type="line"/>
      <point x="716" y="1251" type="line"/>
      <point x="574" y="1190"/>
      <point x="489" y="1260"/>
      <point x="489" y="1044" type="curve" smooth="yes"/>
      <point x="489" y="170" type="line" smooth="yes"/>
      <point x="489" y="-59"/>
      <point x="420" y="-333"/>
      <point x="142" y="-333" type="curve" smooth="yes"/>
      <point x="66" y="-333"/>
      <point x="-58" y="-304"/>
      <point x="-58" y="-207" type="curve" smooth="yes"/>
      <point x="-58" y="-155"/>
      <point x="-19" y="-122"/>
      <point x="31" y="-122" type="curve" smooth="yes"/>
      <point x="135" y="-122"/>
      <point x="117" y="-251"/>
      <point x="195" y="-251" type="curve" smooth="yes"/>
      <point x="267" y="-251"/>
      <point x="274" y="-90"/>
      <point x="274" y="6" type="curve" smooth="yes"/>
      <point x="274" y="1035" type="line" smooth="yes"/>
      <point x="274" y="1249"/>
      <point x="201" y="1195"/>
      <point x="46" y="1250" type="curve"/>
    </contour>
  </outline>
</glyph>
<glyph name="K" format="1">
  <advance width="1568"/>
  <unicode hex="004B"/>
  <outline>
    <contour>
      <point x="488" y="1166" type="curve" smooth="yes"/>
      <point x="488" y="716" type="line"/>
      <point x="574" y="716" type="line"/>
      <point x="1070" y="1178" type="line"/>
      <point x="1073" y="1187"/>
      <point x="1074" y="1194"/>
      <point x="1074" y="1200" type="curve" smooth="yes"/>
      <point x="1074" y="1277"/>
      <point x="881" y="1228"/>
      <point x="881" y="1284" type="curve" smooth="yes"/>
      <point x="881" y="1288"/>
      <point x="883" y="1293"/>
      <point x="886" y="1302" type="curve"/>
      <point x="1430" y="1302" type="line"/>
      <point x="1434" y="1284" type="line"/>
      <point x="1434" y="1265"/>
      <point x="1365" y="1247"/>
      <point x="1292" y="1231" type="curve" smooth="yes"/>
      <point x="1224" y="1216"/>
      <point x="1178" y="1195"/>
      <point x="1150" y="1172" type="curve"/>
      <point x="742" y="784" type="line"/>
      <point x="1230" y="130" type="line"/>
      <point x="1270" y="86"/>
      <point x="1474" y="56"/>
      <point x="1474" y="18" type="curve" smooth="yes"/>
      <point x="1474" y="11"/>
      <point x="1473" y="5"/>
      <point x="1470" y="0" type="curve"/>
      <point x="786" y="0" type="line"/>
      <point x="781" y="11"/>
      <point x="780" y="14"/>
      <point x="780" y="17" type="curve" smooth="yes"/>
      <point x="780" y="67"/>
      <point x="954" y="33"/>
      <point x="954" y="102" type="curve" smooth="yes"/>
      <point x="954" y="106"/>
      <point x="950" y="117"/>
      <point x="937" y="134" type="curve"/>
      <point x="578" y="660" type="line"/>
      <point x="488" y="660" type="line"/>
      <point x="488" y="124" type="line" smooth="yes"/>
      <point x="488" y="9"/>
      <point x="725" y="83"/>
      <point x="725" y="19" type="curve" smooth="yes"/>
      <point x="725" y="16"/>
      <point x="723" y="10"/>
      <point x="720" y="0" type="curve"/>
      <point x="50" y="0" type="line"/>
      <point x="47" y="9"/>
      <point x="46" y="14"/>
      <point x="46" y="17" type="curve" smooth="yes"/>
      <point x="46" y="76"/>
      <point x="273" y="23"/>
      <point x="273" y="130" type="curve" smooth="yes"/>
      <point x="273" y="1166" type="line" smooth="yes"/>
      <point x="273" y="1268"/>
      <point x="45" y="1230"/>
      <point x="45" y="1284" type="curve" smooth="yes"/>
      <point x="45" y="1288"/>
      <point x="47" y="1293"/>
      <point x="50" y="1302" type="curve"/>
      <point x="716" y="1302" type="line"/>
      <point x="719" y="1292"/>
      <point x="720" y="1286"/>
      <point x="720" y="1285" type="curve" smooth="yes"/>
      <point x="720" y="1227"/>
      <point x="488" y="1271"/>
    </contour>
  </outline>
</glyph>
<glyph name="L" format="1">
  <advance width="1273"/>
  <unicode hex="004C"/>
  <outline>
    <contour>
      <point x="276" y="240" type="curve" smooth="yes"/>
      <point x="276" y="1034" type="line" smooth="yes"/>
      <point x="276" y="1250"/>
      <point x="210" y="1199"/>
      <point x="46" y="1251" type="curve"/>
      <point x="48" y="1302" type="line"/>
      <point x="724" y="1302" type="line"/>
      <point x="724" y="1250" type="line"/>
      <point x="571" y="1188"/>
      <point x="492" y="1263"/>
      <point x="492" y="1040" type="curve" smooth="yes"/>
      <point x="492" y="312" type="line" smooth="yes"/>
      <point x="492" y="124"/>
      <point x="520" y="76"/>
      <point x="709" y="76" type="curve" smooth="yes"/>
      <point x="753" y="76"/>
      <point x="798" y="74"/>
      <point x="842" y="74" type="curve" smooth="yes"/>
      <point x="965" y="74"/>
      <point x="1082" y="91"/>
      <point x="1148" y="217" type="curve" smooth="yes"/>
      <point x="1170" y="260"/>
      <point x="1188" y="308"/>
      <point x="1222" y="344" type="curve"/>
      <point x="1282" y="342" type="line"/>
      <point x="1219" y="-11" type="line"/>
      <point x="1146" y="-5"/>
      <point x="1073" y="0"/>
      <point x="1000" y="0" type="curve" smooth="yes"/>
      <point x="47" y="0" type="line"/>
      <point x="45" y="54" type="line"/>
      <point x="155" y="92"/>
      <point x="276" y="88"/>
    </contour>
  </outline>
</glyph>
<glyph name="M" format="1">
  <advance width="1934"/>
  <unicode hex="004D"/>
  <outline>
    <contour>
      <point x="1801" y="1250" type="line"/>
      <point x="1712.7" y="1220.57"/>
      <point x="1616" y="1195.11"/>
      <point x="1616" y="1082" type="curve"/>
      <point x="1688" y="271" type="line" smooth="yes"/>
      <point x="1693" y="216"/>
      <point x="1706" y="159"/>
      <point x="1744" y="117" type="curve"/>
      <point x="1764" y="59"/>
      <point x="1869" y="83"/>
      <point x="1909" y="52" type="curve"/>
      <point x="1907" y="0" type="line"/>
      <point x="1284" y="0" type="line"/>
      <point x="1282" y="52" type="line"/>
      <point x="1366" y="80"/>
      <point x="1476" y="99"/>
      <point x="1476" y="211" type="curve" smooth="yes"/>
      <point x="1476" y="224" type="line"/>
      <point x="1414" y="1068" type="line"/>
      <point x="1281" y="705"/>
      <point x="1073" y="368"/>
      <point x="959" y="0" type="curve"/>
      <point x="880" y="0" type="line"/>
      <point x="764" y="357"/>
      <point x="544" y="678"/>
      <point x="405" y="1029" type="curve"/>
      <point x="382" y="766"/>
      <point x="340" y="495"/>
      <point x="340" y="232" type="curve" smooth="yes"/>
      <point x="340" y="101"/>
      <point x="431" y="88"/>
      <point x="531" y="52" type="curve"/>
      <point x="529" y="0" type="line"/>
      <point x="45" y="0" type="line"/>
      <point x="43" y="52" type="line"/>
      <point x="136" y="90"/>
      <point x="233" y="94"/>
      <point x="246" y="220" type="curve" smooth="yes"/>
      <point x="322" y="968" type="line" smooth="yes"/>
      <point x="326" y="1009"/>
      <point x="329" y="1054"/>
      <point x="329" y="1096" type="curve" smooth="yes"/>
      <point x="329" y="1219"/>
      <point x="224" y="1209"/>
      <point x="144" y="1251" type="curve"/>
      <point x="146" y="1302" type="line"/>
      <point x="535" y="1302" type="line"/>
      <point x="621" y="935"/>
      <point x="846" y="615"/>
      <point x="982" y="267" type="curve"/>
      <point x="1086" y="486"/>
      <point x="1385" y="1077"/>
      <point x="1387" y="1302" type="curve"/>
      <point x="1799" y="1302" type="line"/>
    </contour>
  </outline>
</glyph>
<glyph name="N" format="1">
  <advance width="1661"/>
  <unicode hex="004E"/>
  <outline>
    <contour>
      <point x="46" y="54" type="curve"/>
      <point x="157" y="85"/>
      <point x="278" y="92"/>
      <point x="291" y="239" type="curve"/>
      <point x="291" y="1091" type="line"/>
      <point x="220" y="1208"/>
      <point x="146" y="1205"/>
      <point x="36" y="1250" type="curve"/>
      <point x="36" y="1302" type="line"/>
      <point x="385" y="1302" type="line"/>
      <point x="1326" y="329" type="line"/>
      <point x="1326" y="958" type="line" smooth="yes"/>
      <point x="1326" y="1019"/>
      <point x="1319" y="1073"/>
      <point x="1299" y="1131" type="curve" smooth="yes"/>
      <point x="1266" y="1230"/>
      <point x="1170" y="1211"/>
      <point x="1094" y="1249" type="curve"/>
      <point x="1094" y="1267"/>
      <point x="1095" y="1284"/>
      <point x="1097" y="1302" type="curve"/>
      <point x="1624" y="1302" type="line"/>
      <point x="1624" y="1248" type="line"/>
      <point x="1446" y="1167"/>
      <point x="1415" y="1184"/>
      <point x="1413" y="959" type="curve" smooth="yes"/>
      <point x="1411" y="757"/>
      <point x="1408" y="555"/>
      <point x="1408" y="353" type="curve" smooth="yes"/>
      <point x="1408" y="231"/>
      <point x="1428" y="112"/>
      <point x="1431" y="-9" type="curve"/>
      <point x="1415" y="-15"/>
      <point x="1398" y="-16"/>
      <point x="1382" y="-16" type="curve" smooth="yes"/>
      <point x="1363" y="-16"/>
      <point x="1343" y="-14"/>
      <point x="1325" y="-9" type="curve"/>
      <point x="1273" y="55"/>
      <point x="1219" y="118"/>
      <point x="1161" y="178" type="curve" smooth="yes"/>
      <point x="371" y="1009" type="line"/>
      <point x="371" y="307" type="line" smooth="yes"/>
      <point x="371" y="262"/>
      <point x="377" y="216"/>
      <point x="388" y="172" type="curve" smooth="yes"/>
      <point x="415" y="65"/>
      <point x="539" y="92"/>
      <point x="615" y="53" type="curve"/>
      <point x="615" y="35"/>
      <point x="614" y="18"/>
      <point x="612" y="0" type="curve"/>
      <point x="48" y="0" type="line"/>
      <point x="46" y="18"/>
      <point x="46" y="36"/>
    </contour>
  </outline>
</glyph>
<glyph name="O" format="1">
  <advance width="1580"/>
  <unicode hex="004F"/>
  <outline>
    <contour>
      <point x="333" y="720" type="curve" smooth="yes"/>
      <point x="333" y="340"/>
      <point x="538" y="51"/>
      <point x="825" y="51" type="curve" smooth="yes"/>
      <point x="1064" y="51"/>
      <point x="1246" y="248"/>
      <point x="1246" y="585" type="curve" smooth="yes"/>
      <point x="1246" y="958"/>
      <point x="1048" y="1250"/>
      <point x="757" y="1250" type="curve" smooth="yes"/>
      <point x="529" y="1250"/>
      <point x="333" y="1071"/>
    </contour>
    <contour>
      <point x="100" y="637" type="curve" smooth="yes"/>
      <point x="100" y="1095"/>
      <point x="448" y="1327"/>
      <point x="792" y="1327" type="curve" smooth="yes"/>
      <point x="1166" y="1327"/>
      <point x="1479" y="1063"/>
      <point x="1479" y="648" type="curve" smooth="yes"/>
      <point x="1479" y="240"/>
      <point x="1155" y="-26"/>
      <point x="772" y="-26" type="curve" smooth="yes"/>
      <point x="423" y="-26"/>
      <point x="100" y="224"/>
    </contour>
  </outline>
</glyph>
<glyph name="P" format="1">
  <advance width="1294"/>
  <unicode hex="0050"/>
  <outline>
    <contour>
      <point x="274" y="222" type="curve" smooth="yes"/>
      <point x="274" y="1031" type="line" smooth="yes"/>
      <point x="274" y="1235"/>
      <point x="209" y="1189"/>
      <point x="63" y="1251" type="curve"/>
      <point x="65" y="1302" type="line"/>
      <point x="561" y="1302" type="line" smooth="yes"/>
      <point x="831" y="1302"/>
      <point x="1241" y="1292"/>
      <point x="1241" y="939" type="curve" smooth="yes"/>
      <point x="1241" y="668"/>
      <point x="1027" y="548"/>
      <point x="780" y="548" type="curve" smooth="yes"/>
      <point x="747" y="548"/>
      <point x="572" y="569"/>
      <point x="572" y="614" type="curve" smooth="yes"/>
      <point x="572" y="630"/>
      <point x="598" y="632"/>
      <point x="616" y="632" type="curve" smooth="yes"/>
      <point x="631" y="632" type="line" smooth="yes"/>
      <point x="844" y="632"/>
      <point x="1008" y="670"/>
      <point x="1008" y="925" type="curve" smooth="yes"/>
      <point x="1008" y="1161"/>
      <point x="785" y="1232"/>
      <point x="587" y="1232" type="curve" smooth="yes"/>
      <point x="555" y="1232"/>
      <point x="522" y="1230"/>
      <point x="490" y="1227" type="curve"/>
      <point x="490" y="275" type="line" smooth="yes"/>
      <point x="490" y="33"/>
      <point x="553" y="117"/>
      <point x="717" y="52" type="curve"/>
      <point x="715" y="0" type="line"/>
      <point x="65" y="0" type="line"/>
      <point x="62" y="52" type="line"/>
      <point x="158" y="80"/>
      <point x="274" y="96"/>
    </contour>
  </outline>
</glyph>
<glyph name="Q" format="1">
  <advance width="1580"/>
  <unicode hex="0051"/>
  <outline>
    <contour>
      <point x="334" y="729" type="curve" smooth="yes"/>
      <point x="334" y="314"/>
      <point x="554" y="51"/>
      <point x="823" y="51" type="curve" smooth="yes"/>
      <point x="1052" y="51"/>
      <point x="1246" y="233"/>
      <point x="1246" y="587" type="curve" smooth="yes"/>
      <point x="1246" y="953"/>
      <point x="1048" y="1250"/>
      <point x="758" y="1250" type="curve" smooth="yes"/>
      <point x="523" y="1250"/>
      <point x="334" y="1052"/>
    </contour>
    <contour>
      <point x="1578" y="-213" type="curve"/>
      <point x="1590" y="-285" type="line"/>
      <point x="1539" y="-302"/>
      <point x="1461" y="-314"/>
      <point x="1386" y="-314" type="curve" smooth="yes"/>
      <point x="1250" y="-314"/>
      <point x="1168" y="-293"/>
      <point x="1066" y="-244" type="curve"/>
      <point x="961" y="-195"/>
      <point x="732" y="-73"/>
      <point x="638" y="-11" type="curve"/>
      <point x="326" y="71"/>
      <point x="100" y="286"/>
      <point x="100" y="641" type="curve" smooth="yes"/>
      <point x="100" y="1061"/>
      <point x="415" y="1327"/>
      <point x="792" y="1327" type="curve" smooth="yes"/>
      <point x="1166" y="1327"/>
      <point x="1479" y="1063"/>
      <point x="1479" y="651" type="curve" smooth="yes"/>
      <point x="1479" y="295"/>
      <point x="1229" y="51"/>
      <point x="912" y="-11" type="curve"/>
      <point x="1177" y="-138"/>
      <point x="1296" y="-188"/>
    </contour>
  </outline>
</glyph>
<glyph name="R" format="1">
  <advance width="1413"/>
  <unicode hex="0052"/>
  <outline>
    <contour>
      <point x="1269" y="-26" type="curve" smooth="yes"/>
      <point x="990" y="-26"/>
      <point x="831" y="344"/>
      <point x="699" y="542" type="curve" smooth="yes"/>
      <point x="656" y="607"/>
      <point x="637" y="626"/>
      <point x="556" y="632" type="curve" smooth="yes"/>
      <point x="493" y="636" type="line"/>
      <point x="493" y="251" type="line" smooth="yes"/>
      <point x="493" y="36"/>
      <point x="578" y="114"/>
      <point x="709" y="52" type="curve"/>
      <point x="707" y="0" type="line"/>
      <point x="74" y="0" type="line"/>
      <point x="72" y="52" type="line"/>
      <point x="204" y="124"/>
      <point x="278" y="22"/>
      <point x="278" y="277" type="curve" smooth="yes"/>
      <point x="278" y="1035" type="line" smooth="yes"/>
      <point x="278" y="1231"/>
      <point x="212" y="1189"/>
      <point x="72" y="1251" type="curve"/>
      <point x="74" y="1303" type="line"/>
      <point x="535" y="1303" type="line" smooth="yes"/>
      <point x="783" y="1303"/>
      <point x="1223" y="1302"/>
      <point x="1223" y="970" type="curve" smooth="yes"/>
      <point x="1223" y="770"/>
      <point x="1033" y="672"/>
      <point x="859" y="647" type="curve"/>
      <point x="976" y="496"/>
      <point x="1089" y="338"/>
      <point x="1213" y="193" type="curve" smooth="yes"/>
      <point x="1276" y="119"/>
      <point x="1353" y="79"/>
      <point x="1445" y="54" type="curve"/>
      <point x="1445" y="-2" type="line"/>
      <point x="1387" y="-16"/>
      <point x="1328" y="-26"/>
    </contour>
    <contour>
      <point x="493" y="1227" type="line"/>
      <point x="493" y="703" type="line"/>
      <point x="509" y="703"/>
      <point x="527" y="704"/>
      <point x="545" y="704" type="curve" smooth="yes"/>
      <point x="737" y="707"/>
      <point x="990" y="710"/>
      <point x="990" y="958" type="curve" smooth="yes"/>
      <point x="990" y="1226"/>
      <point x="714" y="1227"/>
      <point x="515" y="1227" type="curve" smooth="yes"/>
    </contour>
  </outline>
</glyph>
<glyph name="S" format="1">
  <advance width="1142"/>
  <unicode hex="0053"/>
  <outline>
    <contour>
      <point x="120" y="77" type="curve"/>
      <point x="120" y="400" type="line"/>
      <point x="179" y="402" type="line"/>
      <point x="198" y="370"/>
      <point x="206" y="333"/>
      <point x="217" y="297" type="curve" smooth="yes"/>
      <point x="265" y="137"/>
      <point x="414" y="58"/>
      <point x="574" y="58" type="curve" smooth="yes"/>
      <point x="699" y="58"/>
      <point x="846" y="124"/>
      <point x="846" y="268" type="curve" smooth="yes"/>
      <point x="846" y="543"/>
      <point x="137" y="617"/>
      <point x="137" y="991" type="curve" smooth="yes"/>
      <point x="137" y="1237"/>
      <point x="377" y="1327"/>
      <point x="587" y="1327" type="curve" smooth="yes"/>
      <point x="718" y="1327"/>
      <point x="851" y="1294"/>
      <point x="968" y="1234" type="curve"/>
      <point x="981" y="949" type="line"/>
      <point x="919" y="949" type="line"/>
      <point x="902" y="981"/>
      <point x="893" y="1017"/>
      <point x="881" y="1051" type="curve" smooth="yes"/>
      <point x="834" y="1187"/>
      <point x="709" y="1250"/>
      <point x="571" y="1250" type="curve" smooth="yes"/>
      <point x="469" y="1250"/>
      <point x="324" y="1198"/>
      <point x="324" y="1075" type="curve" smooth="yes"/>
      <point x="324" y="817"/>
      <point x="1041" y="737"/>
      <point x="1041" y="344" type="curve" smooth="yes"/>
      <point x="1041" y="79"/>
      <point x="791" y="-26"/>
      <point x="561" y="-26" type="curve" smooth="yes"/>
      <point x="425" y="-26"/>
      <point x="230" y="10"/>
    </contour>
  </outline>
</glyph>
<glyph name="T" format="1">
  <advance width="1395"/>
  <unicode hex="0054"/>
  <outline>
    <contour>
      <point x="586" y="241" type="curve" smooth="yes"/>
      <point x="586" y="1228" type="line"/>
      <point x="440" y="1228" type="line" smooth="yes"/>
      <point x="391" y="1228"/>
      <point x="341" y="1227"/>
      <point x="294" y="1220" type="curve" smooth="yes"/>
      <point x="188" y="1204"/>
      <point x="141" y="1056"/>
      <point x="80" y="982" type="curve"/>
      <point x="34" y="982" type="line"/>
      <point x="59" y="1308" type="line"/>
      <point x="136" y="1305"/>
      <point x="214" y="1302"/>
      <point x="291" y="1302" type="curve" smooth="yes"/>
      <point x="485" y="1302"/>
      <point x="680" y="1298"/>
      <point x="875" y="1298" type="curve" smooth="yes"/>
      <point x="1028" y="1298"/>
      <point x="1181" y="1300"/>
      <point x="1333" y="1310" type="curve"/>
      <point x="1365" y="981" type="line"/>
      <point x="1317" y="981" type="line"/>
      <point x="1258" y="1054"/>
      <point x="1211" y="1205"/>
      <point x="1109" y="1220" type="curve" smooth="yes"/>
      <point x="1058" y="1228"/>
      <point x="1006" y="1229"/>
      <point x="954" y="1229" type="curve" smooth="yes"/>
      <point x="909" y="1229"/>
      <point x="864" y="1228"/>
      <point x="820" y="1228" type="curve" smooth="yes"/>
      <point x="801" y="1228" type="line"/>
      <point x="801" y="241" type="line" smooth="yes"/>
      <point x="801" y="80"/>
      <point x="890" y="69"/>
      <point x="1027" y="52" type="curve"/>
      <point x="1027" y="35"/>
      <point x="1027" y="17"/>
      <point x="1025" y="0" type="curve"/>
      <point x="363" y="0" type="line"/>
      <point x="361" y="52" type="line"/>
      <point x="469" y="89"/>
      <point x="586" y="95"/>
    </contour>
  </outline>
</glyph>
<glyph name="X" format="1">
  <advance width="1463"/>
  <unicode hex="0058"/>
  <outline>
    <contour>
      <point x="1053" y="1029" type="curve" smooth="yes"/>
      <point x="811" y="725" type="line"/>
      <point x="1182" y="236" type="line" smooth="yes"/>
      <point x="1257" y="137"/>
      <point x="1292" y="100"/>
      <point x="1372" y="78" type="curve" smooth="yes"/>
      <point x="1403" y="69"/>
      <point x="1444" y="59"/>
      <point x="1462" y="52" type="curve"/>
      <point x="1462" y="36"/>
      <point x="1461" y="19"/>
      <point x="1460" y="0" type="curve"/>
      <point x="808" y="0" type="line"/>
      <point x="806" y="17"/>
      <point x="806" y="34"/>
      <point x="806" y="52" type="curve"/>
      <point x="881" y="69"/>
      <point x="962" y="98"/>
      <point x="962" y="156" type="curve" smooth="yes"/>
      <point x="962" y="171"/>
      <point x="956" y="197"/>
      <point x="942" y="216" type="curve" smooth="yes"/>
      <point x="679" y="565" type="line"/>
      <point x="456" y="294" type="line" smooth="yes"/>
      <point x="417" y="246"/>
      <point x="377" y="182"/>
      <point x="377" y="144" type="curve" smooth="yes"/>
      <point x="377" y="94"/>
      <point x="460" y="73"/>
      <point x="541" y="57" type="curve"/>
      <point x="542" y="48"/>
      <point x="542" y="39"/>
      <point x="542" y="30" type="curve" smooth="yes"/>
      <point x="542" y="21"/>
      <point x="542" y="11"/>
      <point x="541" y="0" type="curve"/>
      <point x="20" y="0" type="line"/>
      <point x="18" y="17"/>
      <point x="18" y="34"/>
      <point x="18" y="52" type="curve"/>
      <point x="72" y="73"/>
      <point x="179" y="94"/>
      <point x="245" y="165" type="curve" smooth="yes"/>
      <point x="267" y="190"/>
      <point x="292" y="219"/>
      <point x="319" y="252" type="curve" smooth="yes"/>
      <point x="632" y="628" type="line"/>
      <point x="273" y="1097" type="line" smooth="yes"/>
      <point x="190" y="1206"/>
      <point x="89" y="1220"/>
      <point x="21" y="1246" type="curve"/>
      <point x="21" y="1262"/>
      <point x="21" y="1279"/>
      <point x="23" y="1302" type="curve"/>
      <point x="665" y="1302" type="line"/>
      <point x="666" y="1285"/>
      <point x="667" y="1267"/>
      <point x="667" y="1250" type="curve"/>
      <point x="590" y="1234"/>
      <point x="512" y="1198"/>
      <point x="512" y="1144" type="curve" smooth="yes"/>
      <point x="512" y="1129"/>
      <point x="519" y="1115"/>
      <point x="529" y="1095" type="curve"/>
      <point x="762" y="788" type="line"/>
      <point x="945" y="1014" type="line" smooth="yes"/>
      <point x="995" y="1076"/>
      <point x="1007" y="1096"/>
      <point x="1007" y="1130" type="curve" smooth="yes"/>
      <point x="1007" y="1183"/>
      <point x="951" y="1228"/>
      <point x="861" y="1246" type="curve"/>
      <point x="859" y="1254"/>
      <point x="859" y="1263"/>
      <point x="859" y="1273" type="curve" smooth="yes"/>
      <point x="859" y="1281"/>
      <point x="859" y="1291"/>
      <point x="861" y="1302" type="curve"/>
      <point x="1374" y="1302" type="line"/>
      <point x="1376" y="1285"/>
      <point x="1376" y="1267"/>
      <point x="1376" y="1250" type="curve"/>
      <point x="1334" y="1233"/>
      <point x="1211" y="1208"/>
      <point x="1136" y="1126" type="curve" smooth="yes"/>
      <point x="1110" y="1098"/>
      <point x="1082" y="1066"/>
    </contour>
  </outline>
</glyph>
<glyph name="Y" format="1">
  <advance width="1330"/>
  <unicode hex="0059"/>
  <outline>
    <contour>
      <point x="1341" y="1250" type="line"/>
      <point x="1243.71" y="1209.94"/>
      <point x="1164.57" y="1180.48"/>
      <point x="1103" y="1086" type="curve" smooth="yes"/>
      <point x="775" y="583" type="line"/>
      <point x="775" y="246" type="line" smooth="yes"/>
      <point x="775" y="41"/>
      <point x="864" y="111"/>
      <point x="992" y="52" type="curve"/>
      <point x="990" y="0" type="line"/>
      <point x="344" y="0" type="line"/>
      <point x="342" y="52" type="line"/>
      <point x="465" y="121"/>
      <point x="560" y="25"/>
      <point x="560" y="254" type="curve" smooth="yes"/>
      <point x="560" y="562" type="line"/>
      <point x="195" y="1134" type="line" smooth="yes"/>
      <point x="162" y="1185"/>
      <point x="56" y="1238"/>
      <point x="-2" y="1251" type="curve"/>
      <point x="-2" y="1302" type="line"/>
      <point x="618" y="1302" type="line"/>
      <point x="620" y="1250" type="line"/>
      <point x="567" y="1241"/>
      <point x="459" y="1211"/>
      <point x="459" y="1142" type="curve" smooth="yes"/>
      <point x="459" y="1081"/>
      <point x="699" y="738"/>
      <point x="744" y="667" type="curve"/>
      <point x="771" y="711"/>
      <point x="1004" y="1037"/>
      <point x="1004" y="1140" type="curve" smooth="yes"/>
      <point x="1004" y="1211"/>
      <point x="891" y="1230"/>
      <point x="839" y="1246" type="curve"/>
      <point x="837" y="1273" type="line" smooth="yes"/>
      <point x="837" y="1282"/>
      <point x="838" y="1291"/>
      <point x="839" y="1302" type="curve"/>
      <point x="1339" y="1302" type="line"/>
    </contour>
  </outline>
</glyph>
<glyph name="Z" format="1">
  <advance width="1285"/>
  <unicode hex="005A"/>
  <outline>
    <contour>
      <point x="1209" y="357" type="line"/>
      <point x="1149" y="-10" type="line"/>
      <point x="1108" y="-10" type="line" smooth="yes"/>
      <point x="1059" y="-10"/>
      <point x="1011" y="0"/>
      <point x="964" y="0" type="curve" smooth="yes"/>
      <point x="67" y="0" type="line"/>
      <point x="63" y="43" type="line"/>
      <point x="843" y="1119" type="line" smooth="yes"/>
      <point x="854" y="1134"/>
      <point x="917" y="1225"/>
      <point x="917" y="1225" type="curve"/>
      <point x="521" y="1225" type="line" smooth="yes"/>
      <point x="410" y="1225"/>
      <point x="328" y="1224"/>
      <point x="266" y="1112" type="curve" smooth="yes"/>
      <point x="240" y="1065"/>
      <point x="217" y="1016"/>
      <point x="186" y="972" type="curve"/>
      <point x="168" y="972"/>
      <point x="151" y="973"/>
      <point x="133" y="975" type="curve"/>
      <point x="160" y="1307" type="line"/>
      <point x="192" y="1307" type="line" smooth="yes"/>
      <point x="520" y="1307"/>
      <point x="849" y="1302"/>
      <point x="1178" y="1302" type="curve"/>
      <point x="1190" y="1297"/>
      <point x="1191" y="1283"/>
      <point x="1191" y="1272" type="curve" smooth="yes"/>
      <point x="1190" y="1245" type="line"/>
      <point x="425" y="198" type="line" smooth="yes"/>
      <point x="399" y="162"/>
      <point x="374" y="127"/>
      <point x="351" y="89" type="curve"/>
      <point x="380" y="80"/>
      <point x="410" y="74"/>
      <point x="441" y="74" type="curve" smooth="yes"/>
      <point x="580" y="74" type="line" smooth="yes"/>
      <point x="687" y="74"/>
      <point x="796" y="76"/>
      <point x="900" y="92" type="curve" smooth="yes"/>
      <point x="979" y="104"/>
      <point x="1010" y="134"/>
      <point x="1047" y="203" type="curve" smooth="yes"/>
      <point x="1076" y="257"/>
      <point x="1110" y="315"/>
      <point x="1153" y="359" type="curve"/>
    </contour>
  </outline>
</glyph>
<glyph name="backslash" format="1">
  <advance width="689"/>
  <unicode hex="005C"/>
  <outline>
    <contour>
      <point x="17" y="1378" type="curve"/>
      <point x="40" y="1396"/>
      <point x="68" y="1402"/>
      <point x="97" y="1402" type="curve"/>
      <point x="167" y="1336"/>
      <point x="183" y="1229"/>
      <point x="216" y="1142" type="curve" smooth="yes"/>
      <point x="617" y="72" type="line" smooth="yes"/>
      <point x="638" y="17"/>
      <point x="639" y="-58"/>
      <point x="644" y="-117" type="curve"/>
      <point x="625" y="-117" type="line" smooth="yes"/>
      <point x="606" y="-117"/>
      <point x="586" y="-117"/>
      <point x="567" y="-112" type="curve"/>
      <point x="542" y="-58"/>
      <point x="521" y="-3"/>
      <point x="502" y="53" type="curve" smooth="yes"/>
      <point x="350" y="498"/>
      <point x="152" y="928"/>
    </contour>
  </outline>
</glyph>
<glyph name="a" format="1">
  <advance width="985"/>
  <unicode hex="0061"/>
  <outline>
    <contour>
      <point x="621" y="200" type="curve"/>
      <point x="621" y="455" type="line"/>
      <point x="518" y="420"/>
      <point x="279" y="361"/>
      <point x="279" y="220" type="curve" smooth="yes"/>
      <point x="279" y="142"/>
      <point x="324" y="93"/>
      <point x="403" y="93" type="curve" smooth="yes"/>
      <point x="487" y="93"/>
      <point x="563" y="143"/>
    </contour>
    <contour>
      <point x="621" y="514" type="curve"/>
      <point x="621" y="609" type="line" smooth="yes"/>
      <point x="621" y="739"/>
      <point x="597" y="852"/>
      <point x="438" y="852" type="curve" smooth="yes"/>
      <point x="392" y="852"/>
      <point x="279" y="821"/>
      <point x="279" y="762" type="curve" smooth="yes"/>
      <point x="279" y="727"/>
      <point x="313" y="700"/>
      <point x="313" y="665" type="curve" smooth="yes"/>
      <point x="313" y="612"/>
      <point x="276" y="572"/>
      <point x="222" y="572" type="curve" smooth="yes"/>
      <point x="152" y="572"/>
      <point x="113" y="633"/>
      <point x="113" y="698" type="curve" smooth="yes"/>
      <point x="113" y="866"/>
      <point x="352" y="926"/>
      <point x="483" y="926" type="curve" smooth="yes"/>
      <point x="773" y="926"/>
      <point x="808" y="797"/>
      <point x="808" y="541" type="curve" smooth="yes"/>
      <point x="808" y="514"/>
      <point x="802" y="419"/>
      <point x="802" y="324" type="curve" smooth="yes"/>
      <point x="802" y="212"/>
      <point x="811" y="99"/>
      <point x="849" y="99" type="curve" smooth="yes"/>
      <point x="881" y="99"/>
      <point x="919" y="145"/>
      <point x="937" y="168" type="curve"/>
      <point x="979" y="123" type="line"/>
      <point x="929" y="40"/>
      <point x="881" y="-20"/>
      <point x="779" y="-20" type="curve" smooth="yes"/>
      <point x="690" y="-20"/>
      <point x="629" y="41"/>
      <point x="624" y="129" type="curve"/>
      <point x="542" y="40"/>
      <point x="435" y="-20"/>
      <point x="312" y="-20" type="curve" smooth="yes"/>
      <point x="191" y="-20"/>
      <point x="82" y="47"/>
      <point x="82" y="178" type="curve" smooth="yes"/>
      <point x="82" y="412"/>
      <point x="449" y="469"/>
    </contour>
  </outline>
</glyph>
<glyph name="b" format="1">
  <advance width="1134"/>
  <unicode hex="0062"/>
  <outline>
    <contour>
      <point x="344" y="665" type="curve"/>
      <point x="344" y="134" type="line" smooth="yes"/>
      <point x="344" y="81"/>
      <point x="355" y="65"/>
      <point x="555" y="65" type="curve" smooth="yes"/>
      <point x="791" y="65"/>
      <point x="866" y="258"/>
      <point x="866" y="412" type="curve" smooth="yes"/>
      <point x="866" y="637"/>
      <point x="758" y="794"/>
      <point x="589" y="794" type="curve" smooth="yes"/>
      <point x="487" y="794"/>
      <point x="400" y="733"/>
    </contour>
    <contour>
      <point x="158" y="134" type="curve" smooth="yes"/>
      <point x="158" y="1163" type="line"/>
      <point x="130" y="1208"/>
      <point x="-10" y="1254"/>
      <point x="-10" y="1254" type="curve"/>
      <point x="-8" y="1288" type="line"/>
      <point x="258" y="1367" type="line"/>
      <point x="344" y="1376" type="line"/>
      <point x="344" y="758" type="line"/>
      <point x="436" y="857"/>
      <point x="535" y="926"/>
      <point x="667" y="926" type="curve" smooth="yes"/>
      <point x="904" y="926"/>
      <point x="1052" y="691"/>
      <point x="1052" y="462" type="curve" smooth="yes"/>
      <point x="1052" y="180"/>
      <point x="847" y="-13"/>
      <point x="572" y="-13" type="curve" smooth="yes"/>
      <point x="269" y="-13"/>
      <point x="158" y="0"/>
    </contour>
  </outline>
</glyph>
<glyph name="c" format="1">
  <advance width="952"/>
  <unicode hex="0063"/>
  <outline>
    <contour>
      <point x="849" y="211" type="curve"/>
      <point x="881" y="188" type="line"/>
      <point x="838" y="49"/>
      <point x="680" y="-20"/>
      <point x="527" y="-20" type="curve" smooth="yes"/>
      <point x="241" y="-20"/>
      <point x="84" y="203"/>
      <point x="84" y="448" type="curve" smooth="yes"/>
      <point x="84" y="713"/>
      <point x="277" y="926"/>
      <point x="574" y="926" type="curve" smooth="yes"/>
      <point x="741" y="926"/>
      <point x="892" y="868"/>
      <point x="892" y="737" type="curve" smooth="yes"/>
      <point x="892" y="670"/>
      <point x="831" y="642"/>
      <point x="797" y="642" type="curve" smooth="yes"/>
      <point x="647" y="642"/>
      <point x="792" y="852"/>
      <point x="559" y="852" type="curve" smooth="yes"/>
      <point x="408" y="852"/>
      <point x="267" y="734"/>
      <point x="267" y="502" type="curve" smooth="yes"/>
      <point x="267" y="298"/>
      <point x="377" y="120"/>
      <point x="584" y="120" type="curve" smooth="yes"/>
      <point x="705" y="120"/>
      <point x="770" y="149"/>
    </contour>
  </outline>
</glyph>
<glyph name="d" format="1">
  <advance width="1180"/>
  <unicode hex="0064"/>
  <outline>
    <contour>
      <point x="799" y="222" type="curve"/>
      <point x="799" y="510" type="line" smooth="yes"/>
      <point x="799" y="625"/>
      <point x="788" y="706"/>
      <point x="713" y="772" type="curve" smooth="yes"/>
      <point x="661" y="818"/>
      <point x="598" y="846"/>
      <point x="534" y="846" type="curve" smooth="yes"/>
      <point x="370" y="846"/>
      <point x="266" y="671"/>
      <point x="266" y="477" type="curve" smooth="yes"/>
      <point x="266" y="296"/>
      <point x="362" y="99"/>
      <point x="562" y="99" type="curve" smooth="yes"/>
      <point x="669" y="99"/>
      <point x="748" y="154"/>
    </contour>
    <contour>
      <point x="799" y="849" type="curve"/>
      <point x="799" y="1175" type="line"/>
      <point x="770" y="1220"/>
      <point x="629" y="1266"/>
      <point x="629" y="1266" type="curve"/>
      <point x="631" y="1301" type="line"/>
      <point x="913" y="1369" type="line"/>
      <point x="985" y="1376" type="line"/>
      <point x="985" y="199" type="line" smooth="yes"/>
      <point x="985" y="108"/>
      <point x="1078" y="96"/>
      <point x="1137" y="88" type="curve" smooth="yes"/>
      <point x="1141" y="88"/>
      <point x="1144" y="87"/>
      <point x="1147" y="87" type="curve"/>
      <point x="1147" y="32" type="line"/>
      <point x="880" y="-12" type="line"/>
      <point x="813" y="-12" type="line"/>
      <point x="804" y="143" type="line"/>
      <point x="710" y="35"/>
      <point x="608" y="-20"/>
      <point x="488" y="-20" type="curve" smooth="yes"/>
      <point x="261" y="-20"/>
      <point x="80" y="153"/>
      <point x="80" y="414" type="curve" smooth="yes"/>
      <point x="80" y="714"/>
      <point x="279" y="923"/>
      <point x="544" y="923" type="curve" smooth="yes"/>
      <point x="634" y="923"/>
      <point x="714" y="889"/>
    </contour>
  </outline>
</glyph>
<glyph name="e" format="1">
  <advance width="958"/>
  <unicode hex="0065"/>
  <outline>
    <contour>
      <point x="266" y="585" type="curve"/>
      <point x="619" y="594" type="line" smooth="yes"/>
      <point x="646" y="595"/>
      <point x="672" y="600"/>
      <point x="693" y="610" type="curve"/>
      <point x="684" y="765"/>
      <point x="621" y="859"/>
      <point x="500" y="859" type="curve" smooth="yes"/>
      <point x="366" y="859"/>
      <point x="283" y="735"/>
    </contour>
    <contour>
      <point x="891" y="526" type="line"/>
      <point x="259" y="526" type="line"/>
      <point x="258" y="516"/>
      <point x="258" y="506"/>
      <point x="258" y="497" type="curve" smooth="yes"/>
      <point x="258" y="235"/>
      <point x="414" y="121"/>
      <point x="597" y="121" type="curve" smooth="yes"/>
      <point x="683" y="121"/>
      <point x="762" y="145"/>
      <point x="840" y="193" type="curve"/>
      <point x="869" y="165" type="line"/>
      <point x="819" y="44"/>
      <point x="652" y="-20"/>
      <point x="522" y="-20" type="curve" smooth="yes"/>
      <point x="267" y="-20"/>
      <point x="82" y="169"/>
      <point x="82" y="447" type="curve" smooth="yes"/>
      <point x="82" y="734"/>
      <point x="291" y="926"/>
      <point x="523" y="926" type="curve" smooth="yes"/>
      <point x="716" y="926"/>
      <point x="854" y="801"/>
      <point x="880" y="620" type="curve"/>
      <point x="887" y="591"/>
      <point x="891" y="562"/>
      <point x="891" y="535" type="curve" smooth="yes"/>
    </contour>
  </outline>
</glyph>
<glyph name="f" format="1">
  <advance width="647"/>
  <unicode hex="0066"/>
  <outline>
    <contour>
      <point x="627" y="818" type="line"/>
      <point x="397" y="818" type="line"/>
      <point x="397" y="259" type="line" smooth="yes"/>
      <point x="397" y="198"/>
      <point x="401" y="151"/>
      <point x="419" y="112" type="curve"/>
      <point x="436" y="61"/>
      <point x="543" y="71"/>
      <point x="595" y="50" type="curve"/>
      <point x="595" y="35"/>
      <point x="595" y="19"/>
      <point x="594" y="0" type="curve"/>
      <point x="48" y="0" type="line"/>
      <point x="47" y="19"/>
      <point x="46" y="35"/>
      <point x="46" y="50" type="curve"/>
      <point x="83" y="71"/>
      <point x="175" y="62"/>
      <point x="190" y="113" type="curve"/>
      <point x="205" y="141"/>
      <point x="211" y="175"/>
      <point x="211" y="215" type="curve" smooth="yes"/>
      <point x="211" y="818" type="line"/>
      <point x="53" y="818" type="line"/>
      <point x="53" y="899" type="line"/>
      <point x="122" y="899" type="line" smooth="yes"/>
      <point x="186" y="899"/>
      <point x="206" y="901"/>
      <point x="207" y="971" type="curve" smooth="yes"/>
      <point x="212" y="1231"/>
      <point x="341" y="1374"/>
      <point x="567" y="1374" type="curve" smooth="yes"/>
      <point x="700" y="1374"/>
      <point x="809" y="1323"/>
      <point x="809" y="1230" type="curve" smooth="yes"/>
      <point x="809" y="1179"/>
      <point x="775" y="1140"/>
      <point x="715" y="1140" type="curve" smooth="yes"/>
      <point x="607" y="1140"/>
      <point x="629" y="1302"/>
      <point x="524" y="1302" type="curve" smooth="yes"/>
      <point x="438" y="1302"/>
      <point x="397" y="1249"/>
      <point x="397" y="1021" type="curve" smooth="yes"/>
      <point x="397" y="899" type="line"/>
      <point x="627" y="899" type="line"/>
    </contour>
  </outline>
</glyph>
<glyph name="g" format="1">
  <advance width="999"/>
  <unicode hex="0067"/>
  <outline>
    <contour>
      <point x="560" y="1" type="curve" smooth="yes"/>
      <point x="481" y="2" type="line" smooth="yes"/>
      <point x="423" y="3"/>
      <point x="366" y="8"/>
      <point x="303" y="15" type="curve"/>
      <point x="233" y="-45"/>
      <point x="206" y="-94"/>
      <point x="206" y="-137" type="curve" smooth="yes"/>
      <point x="206" y="-242"/>
      <point x="385" y="-268"/>
      <point x="468" y="-268" type="curve" smooth="yes"/>
      <point x="602" y="-268"/>
      <point x="803" y="-223"/>
      <point x="803" y="-118" type="curve" smooth="yes"/>
      <point x="803" y="-47"/>
      <point x="730" y="-2"/>
    </contour>
    <contour>
      <point x="288" y="634" type="curve" smooth="yes"/>
      <point x="288" y="491"/>
      <point x="346" y="374"/>
      <point x="477" y="374" type="curve" smooth="yes"/>
      <point x="589" y="374"/>
      <point x="637" y="466"/>
      <point x="637" y="597" type="curve" smooth="yes"/>
      <point x="637" y="763"/>
      <point x="554" y="852"/>
      <point x="449" y="852" type="curve" smooth="yes"/>
      <point x="359" y="852"/>
      <point x="288" y="764"/>
    </contour>
    <contour>
      <point x="941" y="888" type="curve"/>
      <point x="926" y="761" type="line"/>
      <point x="873" y="777"/>
      <point x="733" y="803"/>
      <point x="733" y="803" type="curve"/>
      <point x="733" y="803"/>
      <point x="812" y="714"/>
      <point x="812" y="626" type="curve" smooth="yes"/>
      <point x="812" y="415"/>
      <point x="630" y="308"/>
      <point x="458" y="308" type="curve" smooth="yes"/>
      <point x="420" y="308"/>
      <point x="382" y="314"/>
      <point x="330" y="326" type="curve"/>
      <point x="299" y="302"/>
      <point x="259" y="292"/>
      <point x="259" y="243" type="curve" smooth="yes"/>
      <point x="259" y="174"/>
      <point x="404" y="189"/>
      <point x="656" y="171" type="curve" smooth="yes"/>
      <point x="817" y="159"/>
      <point x="939" y="87"/>
      <point x="939" y="-52" type="curve" smooth="yes"/>
      <point x="939" y="-238"/>
      <point x="711" y="-351"/>
      <point x="442" y="-351" type="curve" smooth="yes"/>
      <point x="204" y="-351"/>
      <point x="76" y="-263"/>
      <point x="76" y="-184" type="curve" smooth="yes"/>
      <point x="76" y="-128"/>
      <point x="119" y="-57"/>
      <point x="229" y="24" type="curve"/>
      <point x="156" y="54"/>
      <point x="110" y="103"/>
      <point x="110" y="163" type="curve" smooth="yes"/>
      <point x="110" y="239"/>
      <point x="180" y="297"/>
      <point x="275" y="352" type="curve"/>
      <point x="172" y="410"/>
      <point x="110" y="498"/>
      <point x="110" y="613" type="curve" smooth="yes"/>
      <point x="110" y="796"/>
      <point x="256" y="926"/>
      <point x="457" y="926" type="curve" smooth="yes"/>
      <point x="542" y="926"/>
      <point x="614" y="906"/>
      <point x="677" y="873" type="curve"/>
      <point x="677" y="873"/>
      <point x="803" y="892"/>
      <point x="894" y="892" type="curve" smooth="yes"/>
      <point x="917" y="892"/>
      <point x="941" y="888"/>
    </contour>
  </outline>
</glyph>
<glyph name="h" format="1">
  <advance width="1188"/>
  <unicode hex="0068"/>
  <outline>
    <contour>
      <point x="1012" y="568" type="curve" smooth="yes"/>
      <point x="1012" y="221" type="line" smooth="yes"/>
      <point x="1012" y="117"/>
      <point x="1067" y="59"/>
      <point x="1164" y="50" type="curve"/>
      <point x="1164" y="34"/>
      <point x="1162" y="0"/>
      <point x="1162" y="0" type="curve"/>
      <point x="670" y="0" type="line"/>
      <point x="670" y="0"/>
      <point x="668" y="34"/>
      <point x="668" y="50" type="curve"/>
      <point x="774" y="96"/>
      <point x="826" y="66"/>
      <point x="826" y="214" type="curve" smooth="yes"/>
      <point x="826" y="577" type="line" smooth="yes"/>
      <point x="826" y="713"/>
      <point x="774" y="818"/>
      <point x="634" y="818" type="curve" smooth="yes"/>
      <point x="531" y="818"/>
      <point x="440" y="752"/>
      <point x="375" y="684" type="curve"/>
      <point x="375" y="233" type="line" smooth="yes"/>
      <point x="375" y="112"/>
      <point x="426" y="62"/>
      <point x="549" y="50" type="curve"/>
      <point x="549" y="34"/>
      <point x="548" y="0"/>
      <point x="548" y="0" type="curve"/>
      <point x="15" y="0" type="line"/>
      <point x="15" y="0"/>
      <point x="13" y="34"/>
      <point x="13" y="50" type="curve"/>
      <point x="125" y="59"/>
      <point x="188" y="115"/>
      <point x="188" y="233" type="curve" smooth="yes"/>
      <point x="188" y="1164" type="line"/>
      <point x="166" y="1196"/>
      <point x="53" y="1253"/>
      <point x="17" y="1258" type="curve"/>
      <point x="17" y="1293" type="line"/>
      <point x="303" y="1369" type="line"/>
      <point x="375" y="1376" type="line"/>
      <point x="375" y="768" type="line"/>
      <point x="470" y="862"/>
      <point x="562" y="926"/>
      <point x="705" y="926" type="curve" smooth="yes"/>
      <point x="879" y="926"/>
      <point x="1012" y="821"/>
    </contour>
  </outline>
</glyph>
<glyph name="i" format="1">
  <advance width="582"/>
  <unicode hex="0069"/>
  <outline>
    <contour>
      <point x="177" y="1224" type="curve" smooth="yes"/>
      <point x="177" y="1288"/>
      <point x="228" y="1340"/>
      <point x="293" y="1340" type="curve" smooth="yes"/>
      <point x="357" y="1340"/>
      <point x="409" y="1288"/>
      <point x="409" y="1224" type="curve" smooth="yes"/>
      <point x="409" y="1159"/>
      <point x="357" y="1108"/>
      <point x="293" y="1108" type="curve" smooth="yes"/>
      <point x="228" y="1108"/>
      <point x="177" y="1159"/>
    </contour>
    <contour>
      <point x="213" y="181" type="curve" smooth="yes"/>
      <point x="213" y="713" type="line"/>
      <point x="183" y="764"/>
      <point x="61" y="797"/>
      <point x="61" y="797" type="curve"/>
      <point x="63" y="832" type="line"/>
      <point x="340" y="912" type="line"/>
      <point x="399" y="918" type="line"/>
      <point x="399" y="220" type="line" smooth="yes"/>
      <point x="399" y="188"/>
      <point x="402" y="159"/>
      <point x="409" y="135" type="curve"/>
      <point x="421" y="68"/>
      <point x="520" y="71"/>
      <point x="548" y="50" type="curve"/>
      <point x="548" y="33"/>
      <point x="548" y="17"/>
      <point x="547" y="0" type="curve"/>
      <point x="51" y="0" type="line"/>
      <point x="49" y="18"/>
      <point x="49" y="34"/>
      <point x="49" y="50" type="curve"/>
      <point x="94" y="74"/>
      <point x="213" y="83"/>
    </contour>
  </outline>
</glyph>
<glyph name="j" format="1">
  <advance width="540"/>
  <unicode hex="006A"/>
  <outline>
    <contour>
      <point x="165" y="1224" type="curve" smooth="yes"/>
      <point x="165" y="1288"/>
      <point x="216" y="1340"/>
      <point x="280" y="1340" type="curve" smooth="yes"/>
      <point x="345" y="1340"/>
      <point x="396" y="1288"/>
      <point x="396" y="1224" type="curve" smooth="yes"/>
      <point x="396" y="1159"/>
      <point x="345" y="1108"/>
      <point x="280" y="1108" type="curve" smooth="yes"/>
      <point x="216" y="1108"/>
      <point x="165" y="1159"/>
    </contour>
    <contour>
      <point x="201" y="88" type="curve"/>
      <point x="201" y="710" type="line"/>
      <point x="173" y="754"/>
      <point x="74" y="786"/>
      <point x="45" y="795" type="curve" smooth="yes"/>
      <point x="43" y="796"/>
      <point x="40" y="797"/>
      <point x="39" y="797" type="curve"/>
      <point x="39" y="832" type="line"/>
      <point x="319" y="911" type="line"/>
      <point x="387" y="918" type="line"/>
      <point x="387" y="125" type="line" smooth="yes"/>
      <point x="387" y="-168"/>
      <point x="251" y="-282"/>
      <point x="14" y="-308" type="curve"/>
      <point x="-1" y="-250" type="line"/>
      <point x="163" y="-176"/>
      <point x="190" y="-136"/>
    </contour>
  </outline>
</glyph>
<glyph name="k" format="1">
  <advance width="1076"/>
  <unicode hex="006B"/>
  <outline>
    <contour>
      <point x="192" y="120" type="curve" smooth="yes"/>
      <point x="192" y="1122" type="line" smooth="yes"/>
      <point x="192" y="1191"/>
      <point x="-4" y="1195"/>
      <point x="-4" y="1227" type="curve" smooth="yes"/>
      <point x="-4" y="1232"/>
      <point x="-3" y="1238"/>
      <point x="0" y="1244" type="curve"/>
      <point x="398" y="1314" type="line"/>
      <point x="398" y="475" type="line"/>
      <point x="460" y="475" type="line"/>
      <point x="810" y="778" type="line"/>
      <point x="812" y="783"/>
      <point x="812" y="787"/>
      <point x="812" y="789" type="curve" smooth="yes"/>
      <point x="812" y="852"/>
      <point x="683" y="813"/>
      <point x="683" y="855" type="curve" smooth="yes"/>
      <point x="683" y="858"/>
      <point x="684" y="863"/>
      <point x="686" y="868" type="curve"/>
      <point x="1080" y="868" type="line"/>
      <point x="1083" y="855" type="line"/>
      <point x="1083" y="840"/>
      <point x="1053" y="828"/>
      <point x="1000" y="817" type="curve" smooth="yes"/>
      <point x="951" y="806"/>
      <point x="918" y="791"/>
      <point x="898" y="774" type="curve" smooth="yes"/>
      <point x="602" y="522" type="line"/>
      <point x="936" y="94" type="line"/>
      <point x="964" y="62"/>
      <point x="1112" y="41"/>
      <point x="1112" y="13" type="curve" smooth="yes"/>
      <point x="1112" y="9"/>
      <point x="1112" y="4"/>
      <point x="1109" y="0" type="curve"/>
      <point x="614" y="0" type="line"/>
      <point x="611" y="6"/>
      <point x="609" y="10"/>
      <point x="609" y="12" type="curve" smooth="yes"/>
      <point x="609" y="49"/>
      <point x="726" y="24"/>
      <point x="726" y="74" type="curve" smooth="yes"/>
      <point x="726" y="77"/>
      <point x="724" y="85"/>
      <point x="713" y="97" type="curve"/>
      <point x="463" y="420" type="line"/>
      <point x="398" y="420" type="line"/>
      <point x="398" y="116" type="line" smooth="yes"/>
      <point x="398" y="32"/>
      <point x="550" y="60"/>
      <point x="550" y="14" type="curve" smooth="yes"/>
      <point x="550" y="11"/>
      <point x="549" y="7"/>
      <point x="546" y="0" type="curve"/>
      <point x="22" y="0" type="line"/>
      <point x="19" y="7"/>
      <point x="19" y="9"/>
      <point x="19" y="12" type="curve" smooth="yes"/>
      <point x="19" y="55"/>
      <point x="192" y="44"/>
    </contour>
  </outline>
</glyph>
<glyph name="l" format="1">
  <advance width="573"/>
  <unicode hex="006C"/>
  <outline>
    <contour>
      <point x="312" y="1369" type="line"/>
      <point x="384" y="1376" type="line"/>
      <point x="384" y="234" type="line" smooth="yes"/>
      <point x="384" y="126"/>
      <point x="422" y="62"/>
      <point x="533" y="50" type="curve"/>
      <point x="533" y="33"/>
      <point x="531" y="0"/>
      <point x="531" y="0" type="curve"/>
      <point x="39" y="0" type="line"/>
      <point x="39" y="0"/>
      <point x="38" y="34"/>
      <point x="38" y="50" type="curve"/>
      <point x="77" y="76"/>
      <point x="178" y="74"/>
      <point x="190" y="140" type="curve" smooth="yes"/>
      <point x="195" y="167"/>
      <point x="198" y="196"/>
      <point x="198" y="228" type="curve" smooth="yes"/>
      <point x="198" y="542"/>
      <point x="197" y="855"/>
      <point x="197" y="1169" type="curve"/>
      <point x="170" y="1213"/>
      <point x="32" y="1258"/>
      <point x="32" y="1258" type="curve"/>
      <point x="34" y="1293" type="line"/>
    </contour>
  </outline>
</glyph>
<glyph name="m" format="1">
  <advance width="1768"/>
  <unicode hex="006D"/>
  <outline>
    <contour>
      <point x="392" y="678" type="curve"/>
      <point x="392" y="235" type="line" smooth="yes"/>
      <point x="392" y="199"/>
      <point x="394" y="168"/>
      <point x="398" y="141" type="curve" smooth="yes"/>
      <point x="408" y="75"/>
      <point x="498" y="74"/>
      <point x="544" y="50" type="curve"/>
      <point x="544" y="33"/>
      <point x="542" y="0"/>
      <point x="542" y="0" type="curve"/>
      <point x="49" y="0" type="line"/>
      <point x="49" y="0"/>
      <point x="48" y="34"/>
      <point x="48" y="50" type="curve"/>
      <point x="84" y="71"/>
      <point x="181" y="72"/>
      <point x="194" y="136" type="curve"/>
      <point x="201" y="161"/>
      <point x="205" y="190"/>
      <point x="205" y="222" type="curve" smooth="yes"/>
      <point x="205" y="724" type="line"/>
      <point x="177" y="777"/>
      <point x="40" y="813"/>
      <point x="40" y="813" type="curve"/>
      <point x="43" y="847" type="line"/>
      <point x="322" y="915" type="line"/>
      <point x="383" y="915" type="line"/>
      <point x="392" y="771" type="line"/>
      <point x="481" y="866"/>
      <point x="570" y="926"/>
      <point x="712" y="926" type="curve" smooth="yes"/>
      <point x="843" y="926"/>
      <point x="927" y="873"/>
      <point x="972" y="765" type="curve"/>
      <point x="1058" y="859"/>
      <point x="1138" y="924"/>
      <point x="1279" y="924" type="curve" smooth="yes"/>
      <point x="1446" y="924"/>
      <point x="1565" y="849"/>
      <point x="1580" y="676" type="curve" smooth="yes"/>
      <point x="1585" y="617"/>
      <point x="1588" y="555"/>
      <point x="1588" y="487" type="curve" smooth="yes"/>
      <point x="1588" y="225" type="line" smooth="yes"/>
      <point x="1588" y="194"/>
      <point x="1590" y="165"/>
      <point x="1595" y="140" type="curve" smooth="yes"/>
      <point x="1606" y="78"/>
      <point x="1690" y="73"/>
      <point x="1731" y="50" type="curve"/>
      <point x="1731" y="34"/>
      <point x="1729" y="0"/>
      <point x="1729" y="0" type="curve"/>
      <point x="1248" y="0" type="line"/>
      <point x="1248" y="0"/>
      <point x="1246" y="34"/>
      <point x="1246" y="50" type="curve"/>
      <point x="1289" y="73"/>
      <point x="1380" y="77"/>
      <point x="1393" y="138" type="curve" smooth="yes"/>
      <point x="1399" y="163"/>
      <point x="1401" y="192"/>
      <point x="1401" y="225" type="curve" smooth="yes"/>
      <point x="1401" y="622" type="line" smooth="yes"/>
      <point x="1401" y="746"/>
      <point x="1335" y="819"/>
      <point x="1216" y="819" type="curve" smooth="yes"/>
      <point x="1126" y="819"/>
      <point x="1039" y="753"/>
      <point x="985" y="694" type="curve"/>
      <point x="991" y="625"/>
      <point x="991" y="551"/>
      <point x="991" y="472" type="curve" smooth="yes"/>
      <point x="991" y="230" type="line" smooth="yes"/>
      <point x="991" y="198"/>
      <point x="992" y="168"/>
      <point x="997" y="142" type="curve" smooth="yes"/>
      <point x="1008" y="78"/>
      <point x="1100" y="74"/>
      <point x="1145" y="50" type="curve"/>
      <point x="1145" y="33"/>
      <point x="1143" y="0"/>
      <point x="1143" y="0" type="curve"/>
      <point x="643" y="0" type="line"/>
      <point x="643" y="0"/>
      <point x="641" y="34"/>
      <point x="641" y="50" type="curve"/>
      <point x="674" y="71"/>
      <point x="766" y="68"/>
      <point x="782" y="117" type="curve"/>
      <point x="797" y="146"/>
      <point x="804" y="182"/>
      <point x="804" y="229" type="curve" smooth="yes"/>
      <point x="804" y="577" type="line" smooth="yes"/>
      <point x="804" y="720"/>
      <point x="769" y="818"/>
      <point x="638" y="818" type="curve" smooth="yes"/>
      <point x="534" y="818"/>
      <point x="458" y="753"/>
    </contour>
  </outline>
</glyph>
<glyph name="p" format="1">
  <advance width="1159"/>
  <unicode hex="0070"/>
  <outline>
    <contour>
      <point x="372" y="677" type="curve"/>
      <point x="372" y="347" type="line" smooth="yes"/>
      <point x="372" y="185"/>
      <point x="466" y="65"/>
      <point x="632" y="65" type="curve" smooth="yes"/>
      <point x="803" y="65"/>
      <point x="887" y="208"/>
      <point x="887" y="428" type="curve" smooth="yes"/>
      <point x="887" y="680"/>
      <point x="755" y="796"/>
      <point x="613" y="796" type="curve" smooth="yes"/>
      <point x="521" y="796"/>
      <point x="437" y="740"/>
    </contour>
    <contour>
      <point x="186" y="714" type="line"/>
      <point x="158.062" y="764.503"/>
      <point x="56.5305" y="800.301"/>
      <point x="20" y="814" type="curve"/>
      <point x="20" y="848" type="line"/>
      <point x="290" y="915" type="line"/>
      <point x="358" y="918" type="line"/>
      <point x="366" y="754" type="line"/>
      <point x="452" y="850"/>
      <point x="547" y="926"/>
      <point x="686" y="926" type="curve" smooth="yes"/>
      <point x="912" y="926"/>
      <point x="1073" y="756"/>
      <point x="1073" y="477" type="curve" smooth="yes"/>
      <point x="1073" y="180"/>
      <point x="876" y="-19"/>
      <point x="617" y="-19" type="curve" smooth="yes"/>
      <point x="527" y="-19"/>
      <point x="443" y="14"/>
      <point x="372" y="75" type="curve"/>
      <point x="372" y="-144" type="line" smooth="yes"/>
      <point x="372" y="-272"/>
      <point x="433" y="-314"/>
      <point x="556" y="-328" type="curve"/>
      <point x="556" y="-344"/>
      <point x="554" y="-378"/>
      <point x="554" y="-378" type="curve"/>
      <point x="27" y="-378" type="line"/>
      <point x="27" y="-378"/>
      <point x="25" y="-344"/>
      <point x="25" y="-328" type="curve"/>
      <point x="128" y="-314"/>
      <point x="186" y="-261"/>
      <point x="186" y="-153" type="curve" smooth="yes"/>
    </contour>
  </outline>
</glyph>
<glyph name="q" format="1">
  <advance width="1134"/>
  <unicode hex="0071"/>
  <outline>
    <contour>
      <point x="791" y="236" type="curve"/>
      <point x="791" y="624" type="line"/>
      <point x="774" y="759"/>
      <point x="684" y="853"/>
      <point x="527" y="853" type="curve" smooth="yes"/>
      <point x="362" y="853"/>
      <point x="265" y="701"/>
      <point x="265" y="495" type="curve" smooth="yes"/>
      <point x="265" y="257"/>
      <point x="391" y="113"/>
      <point x="548" y="113" type="curve" smooth="yes"/>
      <point x="629" y="113"/>
      <point x="703" y="149"/>
    </contour>
    <contour>
      <point x="792" y="-186" type="curve" smooth="yes"/>
      <point x="792" y="144" type="line"/>
      <point x="676" y="23"/>
      <point x="584" y="-22"/>
      <point x="476" y="-22" type="curve" smooth="yes"/>
      <point x="231" y="-22"/>
      <point x="84" y="197"/>
      <point x="84" y="432" type="curve" smooth="yes"/>
      <point x="84" y="752"/>
      <point x="284" y="924"/>
      <point x="550" y="924" type="curve" smooth="yes"/>
      <point x="666" y="924"/>
      <point x="774" y="896"/>
      <point x="869" y="848" type="curve"/>
      <point x="869" y="885" type="line"/>
      <point x="879" y="910"/>
      <point x="928" y="926"/>
      <point x="956" y="926" type="curve" smooth="yes"/>
      <point x="972" y="926"/>
      <point x="977" y="915"/>
      <point x="977" y="898" type="curve" smooth="yes"/>
      <point x="977" y="-138" type="line" smooth="yes"/>
      <point x="977" y="-250"/>
      <point x="1015" y="-309"/>
      <point x="1131" y="-329" type="curve"/>
      <point x="1131" y="-345"/>
      <point x="1129" y="-378"/>
      <point x="1129" y="-378" type="curve"/>
      <point x="612" y="-378" type="line"/>
      <point x="612" y="-378"/>
      <point x="610" y="-344"/>
      <point x="610" y="-329" type="curve"/>
      <point x="677" y="-305"/>
      <point x="792" y="-295"/>
    </contour>
  </outline>
</glyph>
<glyph name="r" format="1">
  <advance width="786"/>
  <unicode hex="0072"/>
  <outline>
    <contour>
      <point x="388" y="633" type="curve"/>
      <point x="388" y="261" type="line" smooth="yes"/>
      <point x="388" y="208"/>
      <point x="390" y="164"/>
      <point x="400" y="129" type="curve"/>
      <point x="414" y="63"/>
      <point x="522" y="71"/>
      <point x="584" y="50" type="curve"/>
      <point x="584" y="33"/>
      <point x="583" y="0"/>
      <point x="583" y="0" type="curve"/>
      <point x="47" y="0" type="line"/>
      <point x="47" y="0"/>
      <point x="46" y="20"/>
      <point x="46" y="36" type="curve" smooth="yes"/>
      <point x="46" y="44"/>
      <point x="46" y="51"/>
      <point x="47" y="54" type="curve"/>
      <point x="139" y="81"/>
      <point x="201" y="70"/>
      <point x="201" y="215" type="curve" smooth="yes"/>
      <point x="201" y="723" type="line"/>
      <point x="172" y="773"/>
      <point x="44" y="805"/>
      <point x="44" y="805" type="curve"/>
      <point x="46" y="840" type="line"/>
      <point x="312" y="916" type="line"/>
      <point x="369" y="916" type="line"/>
      <point x="385" y="732" type="line"/>
      <point x="462" y="873"/>
      <point x="540" y="921"/>
      <point x="640" y="921" type="curve" smooth="yes"/>
      <point x="723" y="921"/>
      <point x="782" y="862"/>
      <point x="782" y="811" type="curve" smooth="yes"/>
      <point x="782" y="783"/>
      <point x="757" y="692"/>
      <point x="696" y="692" type="curve" smooth="yes"/>
      <point x="608" y="692"/>
      <point x="613" y="794"/>
      <point x="551" y="794" type="curve" smooth="yes"/>
      <point x="475" y="794"/>
      <point x="434" y="709"/>
    </contour>
  </outline>
</glyph>
<glyph name="s" format="1">
  <advance width="807"/>
  <unicode hex="0073"/>
  <outline>
    <contour>
      <point x="659" y="853" type="curve"/>
      <point x="665" y="631" type="line"/>
      <point x="651" y="630"/>
      <point x="632" y="630"/>
      <point x="618" y="630" type="curve"/>
      <point x="584" y="750"/>
      <point x="512" y="859"/>
      <point x="381" y="859" type="curve" smooth="yes"/>
      <point x="300" y="859"/>
      <point x="245" y="819"/>
      <point x="245" y="738" type="curve" smooth="yes"/>
      <point x="245" y="634"/>
      <point x="395" y="575"/>
      <point x="514" y="512" type="curve" smooth="yes"/>
      <point x="656" y="436"/>
      <point x="729" y="361"/>
      <point x="729" y="237" type="curve" smooth="yes"/>
      <point x="729" y="67"/>
      <point x="593" y="-20"/>
      <point x="410" y="-20" type="curve" smooth="yes"/>
      <point x="301" y="-20"/>
      <point x="179" y="8"/>
      <point x="106" y="52" type="curve"/>
      <point x="106" y="296" type="line"/>
      <point x="137" y="300"/>
      <point x="148" y="301"/>
      <point x="159" y="301" type="curve"/>
      <point x="186" y="169"/>
      <point x="255" y="50"/>
      <point x="401" y="50" type="curve" smooth="yes"/>
      <point x="497" y="50"/>
      <point x="571" y="102"/>
      <point x="571" y="183" type="curve" smooth="yes"/>
      <point x="571" y="296"/>
      <point x="422" y="329"/>
      <point x="244" y="441" type="curve" smooth="yes"/>
      <point x="148" y="501"/>
      <point x="91" y="573"/>
      <point x="91" y="684" type="curve" smooth="yes"/>
      <point x="91" y="843"/>
      <point x="222" y="926"/>
      <point x="387" y="926" type="curve" smooth="yes"/>
      <point x="491" y="926"/>
      <point x="585" y="900"/>
    </contour>
  </outline>
</glyph>
<glyph name="t" format="1">
  <advance width="670"/>
  <unicode hex="0074"/>
  <outline>
    <contour>
      <point x="622" y="815" type="line"/>
      <point x="373" y="815" type="line"/>
      <point x="373" y="314" type="line" smooth="yes"/>
      <point x="373" y="135"/>
      <point x="377" y="86"/>
      <point x="505" y="86" type="curve" smooth="yes"/>
      <point x="563" y="86"/>
      <point x="622" y="101"/>
      <point x="645" y="108" type="curve"/>
      <point x="653" y="35" type="line"/>
      <point x="605" y="12"/>
      <point x="535" y="-20"/>
      <point x="425" y="-20" type="curve" smooth="yes"/>
      <point x="233" y="-20"/>
      <point x="186" y="66"/>
      <point x="186" y="317" type="curve" smooth="yes"/>
      <point x="186" y="815" type="line"/>
      <point x="37" y="815" type="line"/>
      <point x="37" y="859" type="line"/>
      <point x="181" y="917"/>
      <point x="236" y="1002"/>
      <point x="300" y="1101" type="curve" smooth="yes"/>
      <point x="325" y="1141"/>
      <point x="337" y="1149"/>
      <point x="348" y="1149" type="curve" smooth="yes"/>
      <point x="360" y="1149"/>
      <point x="371" y="1139"/>
      <point x="371" y="1110" type="curve" smooth="yes"/>
      <point x="371" y="899" type="line"/>
      <point x="622" y="899" type="line"/>
    </contour>
  </outline>
</glyph>
<glyph name="u" format="1">
  <advance width="1191"/>
  <unicode hex="0075"/>
  <outline>
    <contour>
      <point x="1160" y="85" type="curve"/>
      <point x="1160" y="68"/>
      <point x="1157" y="32"/>
      <point x="1157" y="32" type="curve"/>
      <point x="829" y="-15" type="line"/>
      <point x="821" y="145" type="line"/>
      <point x="716" y="28"/>
      <point x="603" y="-20"/>
      <point x="490" y="-20" type="curve" smooth="yes"/>
      <point x="233" y="-20"/>
      <point x="192" y="197"/>
      <point x="192" y="429" type="curve" smooth="yes"/>
      <point x="192" y="645" type="line" smooth="yes"/>
      <point x="192" y="687"/>
      <point x="189" y="719"/>
      <point x="184" y="746" type="curve" smooth="yes"/>
      <point x="173" y="803"/>
      <point x="75" y="823"/>
      <point x="26" y="828" type="curve"/>
      <point x="26" y="878" type="line"/>
      <point x="378" y="904" type="line"/>
      <point x="378" y="440" type="line" smooth="yes"/>
      <point x="378" y="190"/>
      <point x="419" y="98"/>
      <point x="554" y="98" type="curve" smooth="yes"/>
      <point x="643" y="98"/>
      <point x="729" y="134"/>
      <point x="816" y="220" type="curve"/>
      <point x="816" y="643" type="line" smooth="yes"/>
      <point x="816" y="686"/>
      <point x="813" y="719"/>
      <point x="808" y="747" type="curve" smooth="yes"/>
      <point x="797" y="804"/>
      <point x="689" y="824"/>
      <point x="642" y="829" type="curve"/>
      <point x="642" y="878" type="line"/>
      <point x="1002" y="904" type="line"/>
      <point x="1002" y="201" type="line" smooth="yes"/>
      <point x="1002" y="112"/>
      <point x="1079" y="99"/>
    </contour>
  </outline>
</glyph>
<glyph name="v" format="1">
  <advance width="969"/>
  <unicode hex="0076"/>
  <outline>
    <contour>
      <point x="813" y="706" type="curve"/>
      <point x="503" y="-12" type="line"/>
      <point x="495" y="-16"/>
      <point x="485" y="-18"/>
      <point x="473" y="-18" type="curve" smooth="yes"/>
      <point x="460" y="-18"/>
      <point x="450" y="-16"/>
      <point x="443" y="-12" type="curve"/>
      <point x="137" y="724" type="line" smooth="yes"/>
      <point x="89" y="840"/>
      <point x="69" y="813"/>
      <point x="-4" y="847" type="curve"/>
      <point x="-4" y="899" type="line"/>
      <point x="446" y="899" type="line"/>
      <point x="447" y="882"/>
      <point x="451" y="860"/>
      <point x="451" y="845" type="curve"/>
      <point x="384" y="827"/>
      <point x="322" y="810"/>
      <point x="322" y="760" type="curve" smooth="yes"/>
      <point x="322" y="752"/>
      <point x="324" y="743"/>
      <point x="327" y="733" type="curve" smooth="yes"/>
      <point x="531" y="230" type="line"/>
      <point x="703" y="649" type="line" smooth="yes"/>
      <point x="718" y="686"/>
      <point x="731" y="728"/>
      <point x="731" y="755" type="curve"/>
      <point x="727" y="805"/>
      <point x="680" y="824"/>
      <point x="601" y="843" type="curve"/>
      <point x="600" y="849"/>
      <point x="600" y="858"/>
      <point x="600" y="866" type="curve" smooth="yes"/>
      <point x="600" y="883"/>
      <point x="601" y="899"/>
      <point x="601" y="899" type="curve"/>
      <point x="973" y="899" type="line"/>
      <point x="975" y="882"/>
      <point x="975" y="866"/>
      <point x="975" y="848" type="curve"/>
      <point x="928" y="818"/>
      <point x="864" y="821"/>
    </contour>
  </outline>
</glyph>
<glyph name="w" format="1">
  <advance width="1434"/>
  <unicode hex="0077"/>
  <outline>
    <contour>
      <point x="318" y="726" type="curve" smooth="yes"/>
      <point x="318" y="723"/>
      <point x="318" y="722"/>
      <point x="319" y="719" type="curve" smooth="yes"/>
      <point x="504" y="243" type="line"/>
      <point x="687" y="688" type="line"/>
      <point x="664" y="769"/>
      <point x="613" y="846"/>
      <point x="519" y="851" type="curve"/>
      <point x="521" y="899" type="line"/>
      <point x="963" y="899" type="line"/>
      <point x="964" y="882"/>
      <point x="965" y="867"/>
      <point x="965" y="851" type="curve"/>
      <point x="915" y="827"/>
      <point x="850" y="825"/>
      <point x="850" y="768" type="curve" smooth="yes"/>
      <point x="850" y="749"/>
      <point x="858" y="725"/>
      <point x="868" y="698" type="curve" smooth="yes"/>
      <point x="1031" y="251" type="line"/>
      <point x="1187" y="672" type="line" smooth="yes"/>
      <point x="1197" y="698"/>
      <point x="1206" y="727"/>
      <point x="1206" y="754" type="curve" smooth="yes"/>
      <point x="1206" y="830"/>
      <point x="1162" y="825"/>
      <point x="1085" y="848" type="curve"/>
      <point x="1084" y="855"/>
      <point x="1083" y="863"/>
      <point x="1083" y="872" type="curve" smooth="yes"/>
      <point x="1083" y="881"/>
      <point x="1084" y="890"/>
      <point x="1085" y="899" type="curve"/>
      <point x="1436" y="899" type="line"/>
      <point x="1436" y="846" type="line"/>
      <point x="1377" y="838"/>
      <point x="1298" y="768"/>
      <point x="1278" y="714" type="curve" smooth="yes"/>
      <point x="1008" y="-14" type="line"/>
      <point x="1001" y="-18"/>
      <point x="991" y="-20"/>
      <point x="978" y="-20" type="curve" smooth="yes"/>
      <point x="965" y="-20"/>
      <point x="955" y="-18"/>
      <point x="947" y="-14" type="curve"/>
      <point x="720" y="596" type="line"/>
      <point x="479" y="-14" type="line"/>
      <point x="471" y="-18"/>
      <point x="461" y="-20"/>
      <point x="448" y="-20" type="curve" smooth="yes"/>
      <point x="434" y="-20"/>
      <point x="423" y="-18"/>
      <point x="416" y="-14" type="curve"/>
      <point x="137" y="699" type="line" smooth="yes"/>
      <point x="106" y="778"/>
      <point x="83" y="832"/>
      <point x="-1" y="850" type="curve"/>
      <point x="1" y="899" type="line"/>
      <point x="413" y="899" type="line"/>
      <point x="414" y="882"/>
      <point x="414" y="867"/>
      <point x="414" y="851" type="curve"/>
      <point x="364" y="834"/>
      <point x="313" y="813"/>
      <point x="313" y="758" type="curve" smooth="yes"/>
      <point x="313" y="749"/>
      <point x="314" y="738"/>
    </contour>
  </outline>
</glyph>
<glyph name="x" format="1">
  <advance width="1008"/>
  <unicode hex="0078"/>
  <outline>
    <contour>
      <point x="171" y="152" type="curve" smooth="yes"/>
      <point x="418" y="431" type="line"/>
      <point x="151" y="772" type="line" smooth="yes"/>
      <point x="113" y="821"/>
      <point x="52" y="836"/>
      <point x="22" y="851" type="curve"/>
      <point x="22" y="866"/>
      <point x="23" y="899"/>
      <point x="23" y="899" type="curve"/>
      <point x="466" y="899" type="line"/>
      <point x="466" y="899"/>
      <point x="467" y="866"/>
      <point x="467" y="851" type="curve"/>
      <point x="418" y="836"/>
      <point x="379" y="811"/>
      <point x="379" y="779" type="curve" smooth="yes"/>
      <point x="379" y="768"/>
      <point x="383" y="761"/>
      <point x="388" y="748" type="curve"/>
      <point x="528" y="561" type="line"/>
      <point x="650" y="710" type="line" smooth="yes"/>
      <point x="671" y="736"/>
      <point x="681" y="756"/>
      <point x="681" y="774" type="curve" smooth="yes"/>
      <point x="681" y="809"/>
      <point x="640" y="839"/>
      <point x="580" y="848" type="curve"/>
      <point x="580" y="899" type="line"/>
      <point x="950" y="899" type="line"/>
      <point x="950" y="899"/>
      <point x="951" y="866"/>
      <point x="951" y="850" type="curve"/>
      <point x="910" y="833"/>
      <point x="837" y="819"/>
      <point x="783" y="753" type="curve" smooth="yes"/>
      <point x="577" y="501" type="line"/>
      <point x="847" y="159" type="line" smooth="yes"/>
      <point x="906" y="84"/>
      <point x="929" y="75"/>
      <point x="1002" y="47" type="curve"/>
      <point x="1002" y="33"/>
      <point x="1000" y="0"/>
      <point x="1000" y="0" type="curve"/>
      <point x="523" y="0" type="line"/>
      <point x="523" y="0"/>
      <point x="522" y="32"/>
      <point x="522" y="48" type="curve"/>
      <point x="566" y="71"/>
      <point x="640" y="75"/>
      <point x="640" y="115" type="curve" smooth="yes"/>
      <point x="640" y="129"/>
      <point x="632" y="146"/>
      <point x="615" y="165" type="curve"/>
      <point x="459" y="376" type="line"/>
      <point x="323" y="225" type="line" smooth="yes"/>
      <point x="293" y="192"/>
      <point x="267" y="143"/>
      <point x="267" y="113" type="curve" smooth="yes"/>
      <point x="267" y="77"/>
      <point x="323" y="63"/>
      <point x="382" y="51" type="curve"/>
      <point x="383" y="45"/>
      <point x="383" y="38"/>
      <point x="383" y="30" type="curve" smooth="yes"/>
      <point x="383" y="15"/>
      <point x="382" y="0"/>
      <point x="382" y="0" type="curve"/>
      <point x="-1" y="0" type="line"/>
      <point x="-1" y="0"/>
      <point x="-3" y="31"/>
      <point x="-3" y="48" type="curve"/>
      <point x="31" y="67"/>
      <point x="114" y="87"/>
    </contour>
  </outline>
</glyph>
<glyph name="y" format="1">
  <advance width="971"/>
  <unicode hex="0079"/>
  <outline>
    <contour>
      <point x="465" y="0" type="curve"/>
      <point x="153" y="712" type="line" smooth="yes"/>
      <point x="89" y="857"/>
      <point x="65" y="818"/>
      <point x="-5" y="847" type="curve"/>
      <point x="-5" y="899" type="line"/>
      <point x="464" y="899" type="line"/>
      <point x="464" y="899"/>
      <point x="469" y="874"/>
      <point x="469" y="867" type="curve" smooth="yes"/>
      <point x="469" y="849"/>
      <point x="432" y="840"/>
      <point x="417" y="830" type="curve"/>
      <point x="361" y="826"/>
      <point x="334" y="810"/>
      <point x="334" y="776" type="curve" smooth="yes"/>
      <point x="334" y="762"/>
      <point x="340" y="743"/>
      <point x="347" y="721" type="curve"/>
      <point x="554" y="227" type="line"/>
      <point x="723" y="675" type="line" smooth="yes"/>
      <point x="733" y="701"/>
      <point x="738" y="723"/>
      <point x="738" y="743" type="curve" smooth="yes"/>
      <point x="738" y="801"/>
      <point x="697" y="828"/>
      <point x="608" y="843" type="curve"/>
      <point x="607" y="849"/>
      <point x="607" y="858"/>
      <point x="607" y="866" type="curve" smooth="yes"/>
      <point x="607" y="883"/>
      <point x="608" y="899"/>
      <point x="608" y="899" type="curve"/>
      <point x="975" y="899" type="line"/>
      <point x="975" y="899"/>
      <point x="976" y="866"/>
      <point x="976" y="848" type="curve"/>
      <point x="931" y="812"/>
      <point x="861" y="827"/>
      <point x="827" y="707" type="curve"/>
      <point x="472" y="-167" type="line" smooth="yes"/>
      <point x="418" y="-301"/>
      <point x="346" y="-395"/>
      <point x="214" y="-395" type="curve" smooth="yes"/>
      <point x="126" y="-395"/>
      <point x="60" y="-351"/>
      <point x="60" y="-279" type="curve" smooth="yes"/>
      <point x="60" y="-224"/>
      <point x="105" y="-186"/>
      <point x="159" y="-186" type="curve" smooth="yes"/>
      <point x="234" y="-186"/>
      <point x="233" y="-257"/>
      <point x="297" y="-257" type="curve" smooth="yes"/>
      <point x="379" y="-257"/>
      <point x="424" y="-129"/>
    </contour>
  </outline>
</glyph>
<glyph name="z" format="1">
  <advance width="892"/>
  <unicode hex="007A"/>
  <outline>
    <contour>
      <point x="823" y="840" type="line"/>
      <point x="278" y="60" type="line"/>
      <point x="472" y="60" type="line" smooth="yes"/>
      <point x="537" y="60"/>
      <point x="592" y="71"/>
      <point x="643" y="86" type="curve" smooth="yes"/>
      <point x="720" y="109"/>
      <point x="742" y="232"/>
      <point x="789" y="279" type="curve"/>
      <point x="806" y="279"/>
      <point x="823" y="277"/>
      <point x="840" y="277" type="curve"/>
      <point x="811" y="-11" type="line"/>
      <point x="811" y="-11"/>
      <point x="686" y="0"/>
      <point x="652" y="0" type="curve" smooth="yes"/>
      <point x="44" y="0" type="line"/>
      <point x="30" y="33" type="line"/>
      <point x="607" y="838" type="line"/>
      <point x="438" y="838" type="line" smooth="yes"/>
      <point x="394" y="838"/>
      <point x="351" y="838"/>
      <point x="313" y="829" type="curve"/>
      <point x="223" y="818"/>
      <point x="187" y="707"/>
      <point x="124" y="662" type="curve"/>
      <point x="79" y="664" type="line"/>
      <point x="100" y="925" type="line"/>
      <point x="169" y="899"/>
      <point x="225" y="899"/>
      <point x="267" y="899" type="curve" smooth="yes"/>
      <point x="768" y="899" type="line"/>
      <point x="787" y="898"/>
      <point x="822" y="895"/>
      <point x="823" y="895" type="curve"/>
    </contour>
  </outline>
</glyph>
<glyph name="bar" format="1">
  <advance width="824"/>
  <unicode hex="007C"/>
  <outline>
    <contour>
      <point x="438" y="1467" type="line"/>
      <point x="455.979" y="1395.08"/>
      <point x="469" y="1318.5"/>
      <point x="469" y="1244" type="curve" smooth="yes"/>
      <point x="469" y="-88" type="line" smooth="yes"/>
      <point x="469" y="-164"/>
      <point x="468" y="-244"/>
      <point x="438" y="-315" type="curve"/>
      <point x="405" y="-314"/>
      <point x="382" y="-301"/>
      <point x="354" y="-283" type="curve"/>
      <point x="354" y="1431" type="line"/>
      <point x="372" y="1457"/>
      <point x="403" y="1467"/>
      <point x="434" y="1467" type="curve" smooth="yes"/>
    </contour>
  </outline>
</glyph>
<glyph name="sterling" format="1">
  <advance width="1238"/>
  <unicode hex="00A3"/>
  <outline>
    <contour>
      <point x="501" y="574" type="line"/>
      <point x="516" y="359" type="line"/>
      <point x="516" y="330"/>
      <point x="503" y="265"/>
      <point x="496" y="242" type="curve"/>
      <point x="565" y="213"/>
      <point x="669" y="160"/>
      <point x="743" y="160" type="curve" smooth="yes"/>
      <point x="900" y="160"/>
      <point x="912" y="312"/>
      <point x="946" y="312" type="curve" smooth="yes"/>
      <point x="952" y="312"/>
      <point x="960" y="309"/>
      <point x="965" y="307" type="curve"/>
      <point x="953" y="154"/>
      <point x="946" y="-11"/>
      <point x="746" y="-11" type="curve" smooth="yes"/>
      <point x="637" y="-11"/>
      <point x="527" y="55"/>
      <point x="436" y="109" type="curve"/>
      <point x="389" y="41"/>
      <point x="316" y="-11"/>
      <point x="231" y="-11" type="curve" smooth="yes"/>
      <point x="134" y="-11"/>
      <point x="65" y="65"/>
      <point x="65" y="160" type="curve" smooth="yes"/>
      <point x="65" y="257"/>
      <point x="136" y="310"/>
      <point x="229" y="310" type="curve" smooth="yes"/>
      <point x="276" y="310"/>
      <point x="322" y="301"/>
      <point x="367" y="288" type="curve"/>
      <point x="302" y="574" type="line"/>
      <point x="293" y="574"/>
      <point x="280" y="573"/>
      <point x="265" y="573" type="curve" smooth="yes"/>
      <point x="218" y="573"/>
      <point x="153" y="579"/>
      <point x="153" y="621" type="curve" smooth="yes"/>
      <point x="153" y="661"/>
      <point x="208" y="667"/>
      <point x="250" y="667" type="curve" smooth="yes"/>
      <point x="264" y="667"/>
      <point x="276" y="666"/>
      <point x="285" y="666" type="curve"/>
      <point x="282" y="732"/>
      <point x="275" y="799"/>
      <point x="275" y="865" type="curve" smooth="yes"/>
      <point x="275" y="1079"/>
      <point x="442" y="1210"/>
      <point x="647" y="1210" type="curve" smooth="yes"/>
      <point x="771" y="1210"/>
      <point x="927" y="1151"/>
      <point x="927" y="1005" type="curve" smooth="yes"/>
      <point x="927" y="935"/>
      <point x="875" y="901"/>
      <point x="824" y="901" type="curve" smooth="yes"/>
      <point x="777" y="901"/>
      <point x="732" y="930"/>
      <point x="732" y="988" type="curve" smooth="yes"/>
      <point x="732" y="1018"/>
      <point x="752" y="1043"/>
      <point x="752" y="1071" type="curve" smooth="yes"/>
      <point x="752" y="1125"/>
      <point x="711" y="1164"/>
      <point x="658" y="1164" type="curve" smooth="yes"/>
      <point x="526" y="1164"/>
      <point x="490" y="988"/>
      <point x="490" y="887" type="curve" smooth="yes"/>
      <point x="490" y="813"/>
      <point x="497" y="739"/>
      <point x="501" y="666" type="curve"/>
      <point x="729" y="666" type="line"/>
      <point x="734" y="650"/>
      <point x="735" y="633"/>
      <point x="735" y="616" type="curve" smooth="yes"/>
      <point x="735" y="596"/>
      <point x="734" y="582"/>
      <point x="729" y="574" type="curve"/>
    </contour>
    <contour>
      <point x="248" y="73" type="curve" smooth="yes"/>
      <point x="298" y="73"/>
      <point x="340" y="111"/>
      <point x="359" y="155" type="curve"/>
      <point x="322" y="176"/>
      <point x="271" y="205"/>
      <point x="227" y="205" type="curve" smooth="yes"/>
      <point x="199" y="205"/>
      <point x="175" y="187"/>
      <point x="175" y="158" type="curve" smooth="yes"/>
      <point x="175" y="112"/>
      <point x="198" y="73"/>
    </contour>
  </outline>
</glyph>
<glyph name="macron" format="1">
  <advance width="772"/>
  <unicode hex="00AF"/>
  <outline>
    <contour>
      <point x="691" y="1302" type="line"/>
      <point x="89" y="1302" type="line"/>
      <point x="89" y="1430" type="line"/>
      <point x="691" y="1430" type="line"/>
    </contour>
  </outline>
</glyph>
<glyph name="degree" format="1">
  <advance width="703"/>
  <unicode hex="00B0"/>
  <outline>
    <contour>
      <point x="593" y="1045" type="curve" smooth="yes"/>
      <point x="593" y="914"/>
      <point x="486" y="803"/>
      <point x="351" y="803" type="curve" smooth="yes"/>
      <point x="214" y="803"/>
      <point x="106" y="911"/>
      <point x="106" y="1045" type="curve" smooth="yes"/>
      <point x="106" y="1177"/>
      <point x="214" y="1287"/>
      <point x="351" y="1287" type="curve" smooth="yes"/>
      <point x="486" y="1287"/>
      <point x="593" y="1177"/>
    </contour>
    <contour>
      <point x="543" y="1045" type="curve" smooth="yes"/>
      <point x="543" y="1145"/>
      <point x="458" y="1233"/>
      <point x="352" y="1233" type="curve" smooth="yes"/>
      <point x="246" y="1233"/>
      <point x="160" y="1145"/>
      <point x="160" y="1045" type="curve" smooth="yes"/>
      <point x="160" y="940"/>
      <point x="246" y="855"/>
      <point x="352" y="855" type="curve" smooth="yes"/>
      <point x="458" y="855"/>
      <point x="543" y="943"/>
    </contour>
  </outline>
</glyph>
<glyph name="acute" format="1">
  <advance width="968"/>
  <unicode hex="00B4"/>
  <outline>
    <contour>
      <point x="650" y="1442" type="curve" smooth="yes"/>
      <point x="548" y="1349"/>
      <point x="363" y="1177"/>
      <point x="294" y="1116" type="curve" smooth="yes"/>
      <point x="278" y="1102"/>
      <point x="264" y="1096"/>
      <point x="254" y="1096" type="curve" smooth="yes"/>
      <point x="239" y="1096"/>
      <point x="231" y="1107"/>
      <point x="231" y="1122" type="curve" smooth="yes"/>
      <point x="231" y="1131"/>
      <point x="235" y="1142"/>
      <point x="242" y="1152" type="curve" smooth="yes"/>
      <point x="325" y="1262"/>
      <point x="464" y="1449"/>
      <point x="529" y="1536" type="curve" smooth="yes"/>
      <point x="547" y="1560"/>
      <point x="569" y="1570"/>
      <point x="590" y="1570" type="curve" smooth="yes"/>
      <point x="632" y="1570"/>
      <point x="671" y="1528"/>
      <point x="671" y="1488" type="curve" smooth="yes"/>
      <point x="671" y="1471"/>
      <point x="665" y="1455"/>
    </contour>
  </outline>
</glyph>
